<?xml version="1.0" encoding="UTF-8"?>
<svg version="1.1" xmlns="http://www.w3.org/2000/svg" width="1198" height="798">
<path d="M0 0 C4.34532891 3.31620534 8.18760103 7.09433133 12 11 C12.61617188 11.59554687 13.23234375 12.19109375 13.8671875 12.8046875 C23.66076326 23.00421459 26.42536932 37.13625713 26.36352539 50.70507812 C26.00452462 67.20954035 18.44507241 78.94763727 7.13671875 90.39453125 C3.22237027 93.92471654 -1.43869579 96.40642708 -6 99 C-4.9162207 99.17221069 -4.9162207 99.17221069 -3.81054688 99.34790039 C41.2651468 106.63390362 83.311015 121.87556923 119 151 C119.99515625 151.79148438 120.9903125 152.58296875 122.015625 153.3984375 C136.3991544 165.03096888 149.91907239 178.36910008 160.80126953 193.35253906 C162.0135225 195.01858448 163.25260363 196.66186715 164.49609375 198.3046875 C189.82077932 232.21560045 205.0235441 273.13841822 210 315 C210.0942627 315.69810791 210.18852539 316.39621582 210.28564453 317.11547852 C213.06006142 340.04288245 212.4437179 365.38370787 208 388 C207.71793701 389.49200928 207.71793701 389.49200928 207.43017578 391.01416016 C202.89637583 414.36845983 195.41989064 437.09460836 184 458 C183.37873488 459.21798077 182.76158537 460.43806902 182.1484375 461.66015625 C172.31658958 481.05322734 159.28996459 498.53675339 144.44921875 514.36328125 C142.39811178 516.57141076 140.4309836 518.81258754 138.5 521.125 C136 524 136 524 133 526 C130.828125 526.046875 130.828125 526.046875 128.25 525.75 C127.2703125 525.64042969 126.290625 525.53085937 125.28125 525.41796875 C124.1984375 525.28003906 123.115625 525.14210938 122 525 C120.8346875 524.85175781 119.669375 524.70351563 118.46875 524.55078125 C113.340503 523.87742949 108.21743783 523.16800642 103.09375 522.4609375 C101.19109375 522.20183594 101.19109375 522.20183594 99.25 521.9375 C98.12078125 521.78152344 96.9915625 521.62554688 95.828125 521.46484375 C87.0050782 520.39347378 78.30983454 519.84263757 69.421875 519.83203125 C68.3437706 519.82793243 67.2656662 519.82383362 66.15489197 519.8196106 C62.68656165 519.81011092 59.21834137 519.81007452 55.75 519.8125 C54.56991364 519.81210724 53.38982727 519.81171448 52.17398071 519.81130981 C33.71419879 519.81867961 15.38423698 520.22334415 -3 522 C-4.22203125 522.10417236 -4.22203125 522.10417236 -5.46875 522.21044922 C-10.80953822 522.73901466 -12.32056194 524.14535061 -16 528 C-21.42847164 531.34631814 -26.57014821 533.66158675 -33 534 C-34.21429688 534.07541016 -34.21429688 534.07541016 -35.453125 534.15234375 C-44.88782179 534.48929721 -54.55093445 533.14547908 -62 527 C-62.89404541 525.98268799 -62.89404541 525.98268799 -63.80615234 524.94482422 C-66.4646613 522.58808236 -68.1085236 522.28331501 -71.6015625 521.8203125 C-73.20306152 521.60036621 -73.20306152 521.60036621 -74.83691406 521.37597656 C-75.88073242 521.2519043 -76.92455078 521.12783203 -78 521 C-78.85045898 520.88881836 -79.70091797 520.77763672 -80.57714844 520.66308594 C-119.09628752 516.00388468 -159.6449506 517.64535986 -197.57885742 525.46166992 C-198.6279126 525.6754126 -199.67696777 525.88915527 -200.7578125 526.109375 C-201.6770752 526.30499023 -202.59633789 526.50060547 -203.54345703 526.70214844 C-206.91968567 527.11151029 -208.93840346 526.81282152 -211.65649414 524.73168945 C-212.19395264 524.19761475 -212.73141113 523.66354004 -213.28515625 523.11328125 C-213.89254639 522.51209473 -214.49993652 521.9109082 -215.12573242 521.29150391 C-215.76486572 520.63843262 -216.40399902 519.98536133 -217.0625 519.3125 C-217.72934814 518.63622559 -218.39619629 517.95995117 -219.08325195 517.26318359 C-225.26859315 510.89148774 -230.76779621 504.16507221 -236 497 C-236.73645752 495.99815674 -236.73645752 495.99815674 -237.48779297 494.97607422 C-244.56035878 485.30597235 -251.09914626 475.42617968 -257 465 C-257.36689941 464.36191406 -257.73379883 463.72382813 -258.11181641 463.06640625 C-272.86046192 437.23869585 -281.65432374 408.32623247 -286 379 C-286.11714355 378.25105469 -286.23428711 377.50210937 -286.35498047 376.73046875 C-293.54188729 329.31610578 -284.82544795 278.9354913 -264 236 C-263.63567871 235.24541504 -263.27135742 234.49083008 -262.89599609 233.71337891 C-254.38053157 216.30488084 -243.92151084 199.49617524 -231 185 C-230.19820312 184.08992187 -229.39640625 183.17984375 -228.5703125 182.2421875 C-225.7597535 179.11471087 -222.89730395 176.04684786 -220 173 C-219.41331543 172.37931641 -218.82663086 171.75863281 -218.22216797 171.11914062 C-182.69873705 133.78037485 -136.22190568 111.00838694 -86 101 C-85.0630127 100.81163574 -84.12602539 100.62327148 -83.16064453 100.42919922 C-80.77423066 99.95040844 -78.38735985 99.47404741 -76 99 C-76.9597876 98.37061523 -76.9597876 98.37061523 -77.93896484 97.72851562 C-86.75256615 91.93316606 -86.75256615 91.93316606 -90 89 C-90 88.34 -90 87.68 -90 87 C-90.66 87 -91.32 87 -92 87 C-104.0063747 73.29736044 -108.15844626 58.33493981 -107.23828125 40.51660156 C-106.24427692 30.01844923 -101.56635573 21.11589294 -95 13 C-93.88625 11.453125 -93.88625 11.453125 -92.75 9.875 C-68.77240253 -15.19248827 -28.77651006 -18.14825199 0 0 Z M-77 26 C-82.75619945 33.91477424 -86.15311004 42.02468302 -85 52 C-83.07936697 61.95824016 -78.27642531 69.55405193 -70.515625 76.00390625 C-69.02371572 77.18307362 -69.02371572 77.18307362 -67 77 C-66.76925781 76.48050781 -66.53851563 75.96101563 -66.30078125 75.42578125 C-62.81224052 67.96609534 -58.43954754 63.48429139 -50.94140625 59.953125 C-42.62013514 57.25672374 -33.8798785 58.17530218 -26.04296875 61.8828125 C-19.40684292 65.51174555 -16.59740405 70.52220027 -13 77 C-4.59609463 72.28561406 0.419794 64.8427191 3.33984375 55.75390625 C5.6016289 46.31864868 3.44774591 38.1412974 -1.25 29.7734375 C-8.11957339 19.66423575 -19.44048898 14.3546238 -31.0625 11.75 C-47.33009652 8.95046013 -65.71955501 13.30949939 -77 26 Z M-190 212 C-193.87028314 216.51139712 -197.47307123 221.21760905 -201 226 C-201.78246094 227.06089844 -202.56492188 228.12179687 -203.37109375 229.21484375 C-233.1549605 270.97419939 -245.67757222 324.15761561 -237.41064453 374.90429688 C-236.97736845 377.27886235 -236.50146855 379.63893928 -236 382 C-235.82839355 382.81887695 -235.65678711 383.63775391 -235.47998047 384.48144531 C-231.58849902 402.47476525 -225.80356174 419.86463407 -217.03710938 436.07763672 C-215.99926346 438.00136523 -214.99158756 439.93899928 -213.984375 441.87890625 C-205.92430781 457.09169112 -195.55764859 470.84539292 -183.640625 483.2421875 C-180.71013855 486.30272512 -177.9455966 489.47539088 -175.20703125 492.70703125 C-174.80871094 493.13371094 -174.41039062 493.56039063 -174 494 C-173.67 494 -173.34 494 -173 494 C-173 455.39 -173 416.78 -173 377 C-168.71 376.67 -164.42 376.34 -160 376 C-158.4840625 375.81824219 -156.968125 375.63648438 -155.40625 375.44921875 C-150.10936624 374.83422928 -144.82728255 374.81600019 -139.5 374.8125 C-138.51902344 374.80025391 -137.53804688 374.78800781 -136.52734375 374.77539062 C-130.37000868 374.76309235 -124.95986659 375.4423076 -119 377 C-119.45737549 377.90951416 -119.91475098 378.81902832 -120.38598633 379.75610352 C-132.00616582 402.83334954 -132.00616582 402.83334954 -143.22314453 426.1081543 C-145.35820805 430.63328215 -147.55606267 435.10524398 -149.890625 439.53125 C-150.59457397 440.88017334 -150.59457397 440.88017334 -151.31274414 442.25634766 C-152.19466227 443.93623646 -153.09109428 445.60863109 -154.00561523 447.27099609 C-156.74262663 452.50765074 -157.98787077 457.07352322 -157 463 C-154.84791761 466.61242402 -152.84088963 468.4096871 -149 470 C-143.52478738 470.6179943 -139.36682792 468.85944341 -134.859375 465.88671875 C-133.89249756 465.25241943 -132.92562012 464.61812012 -131.92944336 463.96459961 C-130.96272705 463.31628174 -129.99601074 462.66796387 -129 462 C-128.14607666 461.42838135 -127.29215332 460.8567627 -126.41235352 460.26782227 C-123.70461059 458.43975217 -121.00773518 456.59645819 -118.3125 454.75 C-116.15412275 453.27663813 -113.99537062 451.8038436 -111.8359375 450.33203125 C-110.95327461 449.73026817 -110.95327461 449.73026817 -110.05278015 449.11634827 C-100.86805813 442.86001927 -91.65015725 436.65257627 -82.4375 430.4375 C-81.06738266 429.51306091 -81.06738266 429.51306091 -79.66958618 428.56994629 C-74.44677959 425.0460542 -69.22357665 421.5227505 -64 418 C-59.79651388 426.8566748 -56.24313239 435.91113211 -52.75 445.0625 C-51.93889543 447.17960816 -51.12683669 449.29634458 -50.31378174 451.41270447 C-49.58595287 453.30837574 -48.86077212 455.20506311 -48.13574219 457.10180664 C-47.09603672 459.88295924 -47.09603672 459.88295924 -46 462 C-45.91316555 464.77160626 -45.8844421 467.51774765 -45.90234375 470.2890625 C-45.90446617 471.51669815 -45.90446617 471.51669815 -45.90663147 472.76913452 C-45.9122371 475.38779325 -45.92479052 478.00636704 -45.9375 480.625 C-45.94251428 482.39843627 -45.94707731 484.17187387 -45.95117188 485.9453125 C-45.96220836 490.29690782 -45.97947675 494.6484395 -46 499 C-46.66314209 498.59297852 -47.32628418 498.18595703 -48.00952148 497.76660156 C-49.33318726 496.96174316 -49.33318726 496.96174316 -50.68359375 496.140625 C-51.98768188 495.34446777 -51.98768188 495.34446777 -53.31811523 494.53222656 C-76.33389603 481.38274634 -107.44167507 484.02325757 -132.09375 490.58203125 C-142.31165975 493.4178492 -152.40350937 496.43324898 -162 501 C-161.505 502.485 -161.505 502.485 -161 504 C-154.91466056 503.52469444 -148.87747334 502.8731124 -142.83203125 502.02734375 C-109.22304355 497.39343135 -74.31635425 494.51342721 -43.71875 511.9609375 C-39.06464578 513.73966124 -35.9107313 512.38088762 -31.44140625 510.51171875 C-30.14727569 509.90612239 -28.85435848 509.29792815 -27.5625 508.6875 C3.47762026 494.72105122 37.07889684 498.79575103 69.78125 503.55859375 C74.17699658 504.16140851 78.58051047 504.61304009 83 505 C83.33 504.34 83.66 503.68 84 503 C76.04431666 498.98053667 68.05980567 495.47060936 59.5625 492.75 C58.84989014 492.51651855 58.13728027 492.28303711 57.40307617 492.04248047 C44.94419309 488.19437859 32.57144063 486.48940786 19.57275391 486.60888672 C17.49965712 486.62500267 15.42850832 486.60889832 13.35546875 486.58984375 C-0.32659 486.56413696 -13.22947091 488.26544513 -25.5 494.6875 C-26.75103516 495.31108398 -26.75103516 495.31108398 -28.02734375 495.94726562 C-30.02788789 496.9475377 -32.01762815 497.96432113 -34 499 C-34.05608962 494.38039632 -34.05656402 489.76475263 -34.01220703 485.14501953 C-34.00425156 483.58415516 -34.00977413 482.02314589 -34.03076172 480.46240234 C-34.18623615 467.81987646 -31.30258595 458.22733729 -26.19018555 446.74261475 C-24.04253659 441.7936606 -22.13821014 436.74979949 -20.203125 431.71484375 C-19.3819868 429.59682046 -18.56036962 427.4789828 -17.73828125 425.36132812 C-17.32916504 424.30502197 -16.92004883 423.24871582 -16.49853516 422.16040039 C-15.23896723 418.90902062 -13.97699818 415.65857959 -12.71484375 412.40820312 C-11.89829487 410.30213863 -11.08188362 408.19602076 -10.265625 406.08984375 C-9.71083466 404.66139381 -9.71083466 404.66139381 -9.14483643 403.2040863 C-7.30875664 398.45863585 -5.50060328 393.70344451 -3.73339844 388.93188477 C-3.40063904 388.0342189 -3.06787964 387.13655304 -2.72503662 386.21168518 C-1.89616349 384.07116803 -1.89616349 384.07116803 -2 382 C-1.42636719 381.90203125 -0.85273438 381.8040625 -0.26171875 381.703125 C6.89654132 380.44309743 13.99816112 378.96574292 21.09692383 377.40917969 C30.70415149 375.33916364 39.9417844 374.78604649 49.7565918 374.75976562 C51.87397145 374.75028447 53.9902787 374.71930311 56.10742188 374.6875 C69.46957023 374.63888827 81.41158029 376.36938963 95 378 C95.33 416.28 95.66 454.56 96 494 C112.84421806 479.56209881 125.84921194 462.09908461 137 443 C137.3825293 442.35015137 137.76505859 441.70030273 138.15917969 441.03076172 C148.94068238 422.46874579 156.02584973 402.05623362 160 381 C160.16226074 380.15356934 160.32452148 379.30713867 160.49169922 378.43505859 C169.43474011 329.67748893 159.10048228 276.34340516 131.24609375 235.1328125 C124.66898857 225.95918058 117.78488855 217.19589199 110 209 C109.51080078 208.47825195 109.02160156 207.95650391 108.51757812 207.41894531 C89.77008405 187.53558715 67.11405019 172.67638586 42 162 C41.37270996 161.72994141 40.74541992 161.45988281 40.09912109 161.18164062 C27.83591984 155.99052852 14.98757339 152.81603369 2 150 C1.17000488 149.81775879 0.34000977 149.63551758 -0.51513672 149.44775391 C-68.52021087 135.28296644 -143.77598097 160.72219688 -190 212 Z " fill="#0E1D2E" transform="translate(415,44)"/>
<path d="M0 0 C-1.62599265 5.86518778 -4.54366115 10.85346158 -7.5 16.125 C-11.53105418 23.40743197 -15.44060882 30.72345076 -19.125 38.1875 C-22.23463806 44.48112234 -25.40052496 50.73450853 -28.6875 56.9375 C-32.96758995 65.01552519 -37.18125748 73.12689734 -41.375 81.25 C-46.03878732 90.28341173 -50.72246194 99.30568501 -55.4375 108.3125 C-64.03796156 124.76599806 -64.03796156 124.76599806 -71.9375 141.5625 C-73.75652206 145.58206309 -75.76338559 149.32501882 -78.12919617 153.04936218 C-83.50328345 161.5503371 -87.20471904 170.28441741 -90.6875 179.6875 C-91.27350134 181.2368896 -91.86101898 182.78570644 -92.44995117 184.33398438 C-93.67631327 187.56091425 -94.89613395 190.79021287 -96.11230469 194.02099609 C-98.02965394 199.09775339 -99.99726542 204.15415431 -101.9765625 209.20703125 C-102.29992081 210.033134 -102.62327911 210.85923676 -102.95643616 211.71037292 C-104.21720662 214.93003333 -105.47880429 218.14936805 -106.74154663 221.36825562 C-107.60739747 223.5779252 -108.47008097 225.78880651 -109.33203125 228 C-109.58864532 228.6525325 -109.8452594 229.305065 -110.10964966 229.97737122 C-111.26759688 232.95421783 -112.33290669 235.87223648 -113 239 C-113.66 239 -114.32 239 -115 239 C-115.39791748 237.99735107 -115.79583496 236.99470215 -116.20581055 235.96166992 C-117.70340488 232.19023529 -119.20459146 228.42023874 -120.70678711 224.65063477 C-121.35260256 223.02862031 -121.99748359 221.40623345 -122.64135742 219.78344727 C-123.57476559 217.43143274 -124.51168996 215.08084335 -125.44921875 212.73046875 C-125.72964523 212.02166061 -126.01007172 211.31285248 -126.29899597 210.58256531 C-128.67772278 204.63478549 -131.31590272 198.81553706 -134 193 C-166.6287343 214.35051094 -166.6287343 214.35051094 -198.76318359 236.43212891 C-202.3578779 238.95178911 -205.98295465 241.42440776 -209.625 243.875 C-210.21192627 244.27485107 -210.79885254 244.67470215 -211.40356445 245.08666992 C-214.49509672 247.15276784 -217.49177444 248.76103558 -221 250 C-219.41909438 244.79133202 -217.22462701 240.01737404 -214.875 235.125 C-214.52179688 234.37992188 -214.16859375 233.63484375 -213.8046875 232.8671875 C-211.4056088 227.83578635 -208.93060905 222.84346193 -206.43359375 217.86010742 C-205.7162314 216.42691343 -204.99893904 214.9936844 -204.28170776 213.5604248 C-203.72052561 212.4391217 -203.72052561 212.4391217 -203.14800644 211.29516602 C-201.22777358 207.45611681 -199.31143249 203.61512703 -197.39501953 199.77416992 C-193.4092402 191.7864884 -189.42159361 183.79974121 -185.43271065 175.81360912 C-183.04050073 171.02397536 -180.64904532 166.23396792 -178.25927734 161.44311523 C-175.91763064 156.7488183 -173.57393098 152.05555128 -171.22890854 147.36293983 C-170.34888756 145.60108108 -169.46955794 143.83887678 -168.59100723 142.07628441 C-163.65740027 132.17943601 -158.65312031 122.32988053 -153.43704414 112.57825756 C-145.58317995 97.82091717 -139.40242146 82.26536761 -133.05537415 66.82014465 C-129.20531061 57.45691581 -125.2693729 48.13102937 -121.3125 38.8125 C-120.84730453 37.71574448 -120.84730453 37.71574448 -120.37271118 36.59683228 C-115.1879692 24.3759384 -115.1879692 24.3759384 -114 22 C-113.34 22 -112.68 22 -112 22 C-106.39 36.19 -100.78 50.38 -95 65 C-92.30132929 65 -91.39416868 63.9772661 -89.24609375 62.359375 C-88.48288818 61.78952881 -87.71968262 61.21968262 -86.93334961 60.63256836 C-86.10971924 60.0113208 -85.28608887 59.39007324 -84.4375 58.75 C-82.69895601 57.45303271 -80.95935257 56.1574845 -79.21875 54.86328125 C-78.34089844 54.21053223 -77.46304688 53.5577832 -76.55859375 52.88525391 C-72.88928366 50.18158859 -69.17034198 47.55243128 -65.4375 44.9375 C-57.33205483 39.25044728 -49.30178632 33.46365964 -41.28369141 27.65429688 C-37.44120884 24.87081795 -33.59587789 22.09128508 -29.75 19.3125 C-29.00741943 18.77584717 -28.26483887 18.23919434 -27.49975586 17.6862793 C-22.1513191 13.82394601 -16.7892825 9.981072 -11.41308594 6.1574707 C-9.1671389 4.55838671 -6.9500245 2.95962833 -4.8046875 1.2265625 C-3 0 -3 0 0 0 Z M-132.7265625 111.63671875 C-138.35886871 117.8100593 -140.9859885 124.66315623 -141 133 C-140.22825344 141.23664059 -136.71203401 147.75893638 -130.625 153.3125 C-124.12018437 158.4714917 -116.9540619 160.47385268 -108.7421875 159.8203125 C-101.50111841 158.58403241 -95.82991804 154.82991804 -90.6875 149.6875 C-85.56888019 141.53562401 -83.81783928 134.72266879 -85 125 C-86.92722836 117.83244283 -91.0705922 111.58390359 -97.29296875 107.4921875 C-109.58768263 100.82063733 -122.40452076 101.85179683 -132.7265625 111.63671875 Z " fill="#0F1E2E" transform="translate(490,253)"/>
<path d="M0 0 C3.05857125 2.61022647 5.47400717 5.49181608 7.9453125 8.66015625 C8.50089844 7.90863281 9.05648437 7.15710938 9.62890625 6.3828125 C16.69889633 -1.92710838 29.1169952 -7.45589948 39.9453125 -8.33984375 C53.76890667 -9.1688449 64.9145468 -6.34182908 75.91015625 2.18359375 C82.00417715 7.65087727 86.25965337 15.659956 87.9453125 23.66015625 C88.03500098 26.48225364 88.07153267 29.27887756 88.05883789 32.10058594 C88.05898392 32.94973068 88.05912994 33.79887543 88.0592804 34.67375183 C88.05858451 37.47653775 88.05080726 40.27925696 88.04296875 43.08203125 C88.04110342 45.02687544 88.03968006 46.97172011 88.03868103 48.91656494 C88.03486492 54.03262634 88.02504234 59.1486593 88.01397705 64.26470947 C88.00374348 69.4863649 87.99917924 74.70802493 87.99414062 79.9296875 C87.98341928 90.17319158 87.96582978 100.4166671 87.9453125 110.66015625 C77.0553125 110.66015625 66.1653125 110.66015625 54.9453125 110.66015625 C54.90792969 105.57867188 54.87054687 100.4971875 54.83203125 95.26171875 C54.80172462 92.02600895 54.77055925 88.79035237 54.73632812 85.5546875 C54.6821783 80.42857679 54.63106222 75.30257135 54.59887695 70.17626953 C54.57270326 66.03933075 54.53220367 61.90274919 54.48212624 57.76603317 C54.46555198 56.1945887 54.45397931 54.62308258 54.44769859 53.05156326 C54.58048915 38.52663667 54.58048915 38.52663667 48.6328125 25.66015625 C43.16525914 21.59127933 37.5832294 20.91874843 30.9453125 21.66015625 C24.61885728 23.66353374 20.91121784 26.78150914 17.1953125 32.22265625 C14.88665991 36.72452881 14.80168195 40.68253858 14.73999023 45.72363281 C14.73009064 46.426474 14.72019104 47.12931519 14.70999146 47.85345459 C14.67848466 50.16919625 14.65366201 52.4849584 14.62890625 54.80078125 C14.60832737 56.40932743 14.58733065 58.01786831 14.56593323 59.62640381 C14.51080902 63.85465195 14.46135729 68.08294811 14.41308594 72.3112793 C14.35395507 77.38747394 14.28778031 82.46358106 14.22278595 87.53970337 C14.12489789 95.24646742 14.03595884 102.95328829 13.9453125 110.66015625 C3.0553125 110.66015625 -7.8346875 110.66015625 -19.0546875 110.66015625 C-19.09207031 105.55546875 -19.12945312 100.45078125 -19.16796875 95.19140625 C-19.19826497 91.94658161 -19.22942356 88.70181072 -19.26367188 85.45703125 C-19.31788309 80.31317944 -19.3689973 75.16943396 -19.40112305 70.02539062 C-19.42724067 65.87549228 -19.467702 61.72595345 -19.51787376 57.57627869 C-19.53448553 55.9975992 -19.54603511 54.4188576 -19.55230141 52.84010315 C-19.55341904 39.35258268 -19.55341904 39.35258268 -25.3046875 27.34765625 C-29.51858376 23.22953036 -33.15658169 21.84092823 -38.9921875 21.28515625 C-45.25135308 21.58782383 -50.15755113 23.28574936 -54.4296875 27.97265625 C-58.66631384 33.04950737 -59.30667494 38.60161256 -59.37353516 45.04248047 C-59.38860359 46.11181068 -59.38860359 46.11181068 -59.40397644 47.20274353 C-59.43466762 49.54010267 -59.45180396 51.87734802 -59.46875 54.21484375 C-59.48747301 55.84295623 -59.50704726 57.47105913 -59.5274353 59.09915161 C-59.57864295 63.37010024 -59.61832928 67.64108028 -59.65557861 71.91217041 C-59.70275052 77.04435432 -59.76429942 82.17638372 -59.82342529 87.30844116 C-59.91149894 95.09228343 -59.98136221 102.87609816 -60.0546875 110.66015625 C-70.9446875 110.66015625 -81.8346875 110.66015625 -93.0546875 110.66015625 C-93.0546875 72.38015625 -93.0546875 34.10015625 -93.0546875 -5.33984375 C-82.1646875 -5.33984375 -71.2746875 -5.33984375 -60.0546875 -5.33984375 C-59.5596875 -0.38984375 -59.5596875 -0.38984375 -59.0546875 4.66015625 C-57.9821875 3.60828125 -56.9096875 2.55640625 -55.8046875 1.47265625 C-40.39640421 -12.06795634 -16.29255724 -11.75348687 0 0 Z " fill="#0D1C2D" transform="translate(509.0546875,625.33984375)"/>
<path d="M0 0 C12.84624063 10.84750531 20.37794276 26.85451736 21.92626953 43.49389648 C23.40881175 62.66493561 18.91122083 80.30575375 6.4609375 95.24609375 C-2.66268047 104.95833223 -14.47322266 110.66486303 -27.8125 111.34375 C-29.65855737 111.38839034 -31.50502872 111.4183103 -33.3515625 111.43359375 C-34.21821533 111.44374512 -35.08486816 111.45389648 -35.9777832 111.46435547 C-43.97612925 111.35658764 -51.84014553 109.81607325 -58.4765625 105.12109375 C-59.16363281 104.64929688 -59.85070312 104.1775 -60.55859375 103.69140625 C-63.09334829 101.65043506 -65.3629167 99.29723955 -67.6640625 96.99609375 C-67.9940625 114.15609375 -68.3240625 131.31609375 -68.6640625 148.99609375 C-79.8840625 148.99609375 -91.1040625 148.99609375 -102.6640625 148.99609375 C-102.6640625 97.18609375 -102.6640625 45.37609375 -102.6640625 -8.00390625 C-91.4440625 -8.00390625 -80.2240625 -8.00390625 -68.6640625 -8.00390625 C-68.1690625 -2.06390625 -68.1690625 -2.06390625 -67.6640625 3.99609375 C-67.1896875 3.29484375 -66.7153125 2.59359375 -66.2265625 1.87109375 C-49.2830841 -17.13866251 -18.88540445 -14.20559015 0 0 Z M-62.5390625 26.68359375 C-69.7080141 35.61096744 -71.09761555 45.40079962 -70.16015625 56.48828125 C-68.98293095 64.81228379 -65.00614721 71.4828042 -58.6640625 76.99609375 C-51.01567353 81.81218868 -43.34913598 84.28504583 -34.2734375 82.53515625 C-25.41368469 80.225098 -19.36944431 76.00512615 -14.671875 68.12109375 C-10.09115363 58.46251846 -9.607528 47.9813557 -12.59375 37.78515625 C-15.57470102 30.01727659 -20.36664027 24.08747938 -27.6640625 19.99609375 C-40.08516657 14.96519964 -53.258252 17.03076764 -62.5390625 26.68359375 Z " fill="#101F2F" transform="translate(714.6640625,628.00390625)"/>
<path d="M0 0 C0.69351563 0.56976562 1.38703125 1.13953125 2.1015625 1.7265625 C0.85692046 6.29024998 -1.65498534 8.67058434 -4.96484375 11.8359375 C-9.99721688 16.75648012 -14.42333657 22.30219773 -18.8984375 27.7265625 C-22.61396027 26.40052787 -25.39954395 24.74410973 -28.5234375 22.3515625 C-35.55049608 17.32475457 -43.24488409 14.36756646 -51.8984375 13.7265625 C-52.55972656 13.675 -53.22101563 13.6234375 -53.90234375 13.5703125 C-66.98564922 13.00859634 -78.19920702 18.23779598 -87.8984375 26.7265625 C-95.78747103 37.09500657 -99.07669596 47.0098268 -99.1484375 59.8515625 C-99.1690625 60.75132812 -99.1896875 61.65109375 -99.2109375 62.578125 C-99.28124995 74.81249173 -95.00473198 85.2433051 -86.8984375 94.4140625 C-77.08613899 103.67634427 -64.88227136 106.15266174 -51.90625 105.9375 C-39.06917297 105.45229084 -27.92354756 98.4672135 -18.8984375 89.7265625 C-18.22039062 90.40589844 -17.54234375 91.08523438 -16.84375 91.78515625 C-14.72035986 93.90929459 -12.58835213 96.02448274 -10.453125 98.13671875 C-9.22652347 99.35412734 -7.99996162 100.57157592 -6.7734375 101.7890625 C-6.15339844 102.40072266 -5.53335938 103.01238281 -4.89453125 103.64257812 C-1.99119287 106.53030716 0.78149665 109.33113766 3.1015625 112.7265625 C1.57663945 116.93457802 -1.48713048 119.00395188 -5.0234375 121.4765625 C-5.64234863 121.91049316 -6.26125977 122.34442383 -6.89892578 122.79150391 C-26.74550484 136.34514417 -48.88267595 142.51029149 -72.90039062 138.14501953 C-93.15784292 133.90243971 -110.99439742 122.82003692 -122.90234375 105.88671875 C-130.2996804 94.17547541 -136.32295726 80.77787173 -136.8984375 66.7265625 C-136.95 65.57929687 -137.0015625 64.43203125 -137.0546875 63.25 C-137.66182383 43.1370475 -132.62469127 24.61283413 -119.8984375 8.7265625 C-119.11919922 7.70369141 -119.11919922 7.70369141 -118.32421875 6.66015625 C-88.91542673 -29.7269932 -34.14837932 -26.78484739 0 0 Z " fill="#0F1E2E" transform="translate(273.8984375,600.2734375)"/>
<path d="M0 0 C1.36125 0.8971875 1.36125 0.8971875 2.75 1.8125 C10.28560119 9.13877893 15.69358165 20.03946598 16.15821838 30.59405518 C16.17880218 32.05645798 16.19413457 33.51894044 16.20532227 34.98144531 C16.21522186 35.7818222 16.22512146 36.5821991 16.23532104 37.40682983 C16.26685942 40.04723166 16.29166313 42.68765147 16.31640625 45.328125 C16.3369824 47.16087303 16.35797904 48.99361639 16.37937927 50.82635498 C16.43453171 55.64644582 16.48397108 60.466579 16.53222656 65.28674316 C16.58249146 70.20682537 16.63815148 75.12684621 16.69335938 80.046875 C16.80085745 89.69786615 16.90182228 99.34890953 17 109 C6.11 109 -4.78 109 -16 109 C-16.33 105.7 -16.66 102.4 -17 99 C-17.53367187 99.53109375 -18.06734375 100.0621875 -18.6171875 100.609375 C-27.46333882 108.99638352 -36.82503679 112.35991431 -49 113 C-62.15352666 112.63687577 -73.12351003 109.75927611 -82.80078125 100.4921875 C-89.34867838 93.07201278 -92.58081294 83.11062332 -92.24609375 73.2265625 C-91.17849477 63.56733368 -88.49672849 54.78954705 -80.99609375 48.25390625 C-65.47320677 37.11852579 -44.9091235 36.9577985 -26.66015625 39.671875 C-23.07246754 40.30862422 -19.52954477 41.09193948 -16 42 C-16.1583056 34.976988 -17.04380534 29.25988305 -22 24 C-30.96170162 17.86550187 -41.84658585 17.91329713 -52.265625 19.49609375 C-58.48319266 20.93655118 -64.09898474 23.20080554 -69.8203125 26.01171875 C-72 27 -72 27 -74 27 C-76.97 19.08 -79.94 11.16 -83 3 C-58.84916393 -11.49050164 -24.44193748 -17.66595482 0 0 Z M-56 64 C-58.9224897 68.38373454 -59.559524 71.77777599 -59 77 C-57.25837187 81.67489656 -55.20873103 84.32171662 -51 87 C-42.39439457 90.24739828 -34.33810592 89.63943386 -26 86 C-20.87811254 82.66214076 -17.08254594 78.64129089 -15.3125 72.6875 C-14.89528212 69.09942627 -14.93877792 65.61210289 -15 62 C-27.10356269 57.45875867 -45.63763844 54.67387459 -56 64 Z " fill="#0E1D2D" transform="translate(837,627)"/>
<path d="M0 0 C3.6207639 2.75514412 6.83148613 5.74030587 10 9 C10.63421875 9.61359375 11.2684375 10.2271875 11.921875 10.859375 C23.40651794 22.75055398 27.5028798 38.59721377 27.34960938 54.66113281 C26.91785169 70.17523663 20.70555963 84.29313157 9.8671875 95.4609375 C-6.71960662 110.1495154 -24.46173747 113.08838074 -46 112 C-49.98583107 111.50005111 -53.31438531 110.57634358 -57 109 C-58.68802734 108.28650391 -58.68802734 108.28650391 -60.41015625 107.55859375 C-68.43754023 103.95225993 -74.85410146 99.33347533 -81 93 C-81.96873047 92.04480469 -81.96873047 92.04480469 -82.95703125 91.0703125 C-94.07546331 79.39474767 -97.54673222 64.68437585 -97.48999023 49.05541992 C-96.98689206 31.745458 -89.50379107 16.96014798 -77 5 C-54.63975989 -13.48446516 -24.54650336 -15.03618748 0 0 Z M-58 29 C-64.83448016 38.93446984 -66.63865487 49.74641956 -64.53515625 61.625 C-61.85863859 70.74733236 -56.48814313 76.22874061 -48.3671875 80.87109375 C-41.15868678 84.30881109 -32.18502801 84.32648256 -24.66015625 81.94140625 C-15.96922752 77.8973297 -10.31964235 72.72833544 -6.5625 63.875 C-3.5639319 54.50285209 -3.80983889 44.63247961 -7.60546875 35.5390625 C-11.67671982 28.1264205 -17.61320866 22.05439459 -25.78515625 19.42578125 C-38.15631755 17.04755095 -49.51861013 19.43992962 -58 29 Z " fill="#0E1D2D" transform="translate(378,627)"/>
<path d="M0 0 C0.64952637 0.33193359 1.29905273 0.66386719 1.96826172 1.00585938 C6.38399415 3.4376774 6.38399415 3.4376774 7.42944336 5.87695312 C7.67962416 8.59302329 7.03001447 9.66359124 5.60546875 11.96875 C5.16009766 12.70480469 4.71472656 13.44085937 4.25585938 14.19921875 C3.77955078 14.95847656 3.30324219 15.71773437 2.8125 16.5 C1.88839159 18.00984704 0.96518404 19.5202459 0.04296875 21.03125 C-0.37186768 21.69705078 -0.7867041 22.36285156 -1.21411133 23.04882812 C-2.36993134 24.99148081 -3.38964556 26.96637806 -4.375 29 C-7.24441779 27.98726431 -9.46921924 26.93105909 -11.9375 25.125 C-20.55324683 19.2934767 -31.18614275 17.58806098 -41.375 19 C-44.21749883 20.18767872 -44.21749883 20.18767872 -46.375 22 C-47.71160145 25.35592863 -47.71160145 25.35592863 -47.375 29 C-43.83215655 34.85931801 -37.65164844 35.68683799 -31.37890625 37.43017578 C-1.07979537 46.04593173 -1.07979537 46.04593173 7.12890625 59.45703125 C9.46471938 63.89574167 11.30876442 67.94023075 11.625 73 C11.67527344 73.73734375 11.72554687 74.4746875 11.77734375 75.234375 C12.20114475 86.15148878 8.84956834 94.52283135 1.5 102.5625 C-9.23059944 112.88301283 -23.7304981 114.49981642 -37.94824219 114.42163086 C-56.03184477 113.95649235 -72.24870277 107.82860788 -87.375 98 C-86.75442898 94.63908565 -85.52362956 92.51572645 -83.50390625 89.77734375 C-82.92962891 88.99166016 -82.35535156 88.20597656 -81.76367188 87.39648438 C-80.8597168 86.17928711 -80.8597168 86.17928711 -79.9375 84.9375 C-78.75098511 83.32184732 -77.56477454 81.70597109 -76.37890625 80.08984375 C-75.85111572 79.37691162 -75.3233252 78.66397949 -74.77954102 77.92944336 C-73.60427454 76.31495858 -72.48270898 74.66156348 -71.375 73 C-68.37557308 74.43480559 -65.61656782 76.09185308 -62.8125 77.875 C-53.68369299 83.39819832 -44.51525739 86.12231691 -33.875 86.25 C-32.5859375 86.27578125 -31.296875 86.3015625 -29.96875 86.328125 C-25.90985977 85.95753067 -23.2737759 84.8987759 -20.375 82 C-19.82194898 77.06183212 -19.82194898 77.06183212 -22.109375 72.890625 C-27.69571095 68.22892396 -35.40078464 66.96450184 -42.32885742 65.24414062 C-54.50179977 62.20958034 -68.20229931 58.53495615 -75.09375 47.1640625 C-80.6317835 36.58432868 -81.80797186 27.14211988 -78.4140625 15.67578125 C-74.96640581 6.79741722 -67.210242 -0.23497095 -58.625 -4.12109375 C-39.31715311 -11.66322144 -18.17889996 -9.33405771 0 0 Z " fill="#0E1D2E" transform="translate(951.375,625)"/>
<path d="M0 0 C1.02091228 0.97864095 2.02580555 1.97484383 3 3 C2.46258179 3.93851807 2.46258179 3.93851807 1.91430664 4.89599609 C0.2964777 7.72201054 -1.32052121 10.54849904 -2.9375 13.375 C-3.78344727 14.85226562 -3.78344727 14.85226562 -4.64648438 16.359375 C-5.18466797 17.30039062 -5.72285156 18.24140625 -6.27734375 19.2109375 C-7.02359009 20.51490479 -7.02359009 20.51490479 -7.78491211 21.84521484 C-8.55581337 23.21229833 -9.29811596 24.59623193 -10 26 C-12.26766183 24.87428721 -14.52238653 23.72886002 -16.76953125 22.5625 C-26.92793055 17.34637712 -35.42833136 14.72793714 -47 16 C-49.85905644 17.20655974 -49.85905644 17.20655974 -52 19 C-53.16694587 22.35496939 -53.23644384 24.23610453 -52.1875 27.625 C-46.78589101 33.48960405 -37.04842973 34.90832237 -29.5625 36.875 C-16.56565552 40.47726245 -5.14116164 45.35446358 2.41015625 57.21484375 C6.83324652 65.72810352 7.41776405 75.60298029 5.3515625 84.92578125 C1.72293551 94.89675201 -5.82116285 102.10701553 -15.25 106.625 C-32.33072298 114.55894529 -53.59716802 112.46438461 -70.92138672 106.31835938 C-78.75908914 103.37389782 -85.9889245 99.55558362 -93 95 C-92.38818042 91.24547982 -90.71000034 88.99559099 -88.40234375 86.015625 C-87.68369141 85.08105469 -86.96503906 84.14648438 -86.22460938 83.18359375 C-85.46986328 82.21550781 -84.71511719 81.24742187 -83.9375 80.25 C-83.17888672 79.26644531 -82.42027344 78.28289062 -81.63867188 77.26953125 C-79.76485494 74.84181874 -77.88514699 72.41891823 -76 70 C-73.0752924 71.43240864 -70.41223967 73.02894847 -67.6875 74.8125 C-56.24837226 81.62908124 -44.2605863 84.7960162 -31 83 C-28.1036342 81.83088995 -28.1036342 81.83088995 -26 80 C-25.07912768 76.62346816 -24.55091142 74.245662 -25.75537109 70.90478516 C-30.30252454 63.94580297 -44.11873183 62.69165601 -51.5859375 60.8203125 C-64.07192509 57.51519814 -74.32510327 52.30321234 -81.66796875 41.51171875 C-86.15134996 33.05771841 -86.4853725 22.76244958 -84.125 13.60546875 C-80.19802769 3.33591946 -73.89792325 -2.49793457 -64 -7 C-42.6945787 -15.32785197 -19.28732597 -11.62634614 0 0 Z " fill="#0E1D2D" transform="translate(1061,628)"/>
<path d="M0 0 C12 0 12 0 16.05859375 3.91015625 C17.22600278 5.59993135 18.35186529 7.31906058 19.4375 9.0625 C20.00919922 9.91005859 20.58089844 10.75761719 21.16992188 11.63085938 C22.24451315 13.22855823 23.30277856 14.83747094 24.33764648 16.46118164 C26.46219341 19.70588182 28.74574135 22.84403789 31 26 C31.33 17.42 31.66 8.84 32 0 C36.29 0 40.58 0 45 0 C45 17.49 45 34.98 45 53 C34 53 34 53 31.5612793 51.3828125 C31.07054932 50.63773437 30.57981934 49.89265625 30.07421875 49.125 C29.50509766 48.30386719 28.93597656 47.48273438 28.34960938 46.63671875 C27.80111328 45.76660156 27.25261719 44.89648438 26.6875 44 C25.54562642 42.31246379 24.40369983 40.62496346 23.26171875 38.9375 C22.77662842 38.18339844 22.29153809 37.42929688 21.79174805 36.65234375 C19.32912791 33.00690088 16.63957394 29.51943192 14 26 C14 34.91 14 43.82 14 53 C9.38 53 4.76 53 0 53 C0 35.51 0 18.02 0 0 Z " fill="#0D1A2A" transform="translate(355,208)"/>
<path d="M0 0 C8.17216981 7.39386792 8.17216981 7.39386792 8.625 12.375 C8.7796875 13.98375 8.7796875 13.98375 8.9375 15.625 C8.43277311 21.68172265 6.18404337 26.3133091 1.5625 30.3125 C-3.5172225 33.87911367 -8.3399857 34.0445094 -14.375 33.375 C-19.25179522 30.98260989 -22.18455604 27.65931045 -25.375 23.375 C-27.0478747 18.35637589 -27.40847349 13.09539882 -25.50390625 8.08203125 C-20.05906038 -1.43306005 -10.1506894 -4.88736897 0 0 Z " fill="#0E1D2D" transform="translate(386.375,368.625)"/>
<path d="M0 0 C10.89 0 21.78 0 33 0 C32.67 4.29 32.34 8.58 32 13 C31.67 13 31.34 13 31 13 C31 9.04 31 5.08 31 1 C21.43 1 11.86 1 2 1 C2 38.29 2 75.58 2 114 C11.57 114 21.14 114 31 114 C30.98952637 111.93073242 30.97905273 109.86146484 30.96826172 107.72949219 C30.9351207 100.89228237 30.9130298 94.05506901 30.89637566 87.21780014 C30.88593889 83.07240296 30.87178165 78.92708809 30.84912109 74.78173828 C30.82738889 70.78117311 30.81543057 66.78068709 30.81024551 62.78006744 C30.80655044 61.25384525 30.79933489 59.72762739 30.78853989 58.2014389 C30.77401982 56.06355936 30.77202225 53.92600686 30.77294922 51.78808594 C30.768508 50.5711908 30.76406677 49.35429565 30.75949097 48.1005249 C31 45 31 45 33 41 C33 65.75 33 90.5 33 116 C22.11 116 11.22 116 0 116 C0 77.72 0 39.44 0 0 Z " fill="#01050F" transform="translate(416,620)"/>
<path d="M0 0 C2.64 0 5.28 0 8 0 C4.25 2 4.25 2 2 2 C2 40.28 2 78.56 2 118 C0 116 0 116 -0.24609566 113.94228935 C-0.24425207 113.08870905 -0.24240849 112.23512875 -0.24050903 111.35568237 C-0.24325836 110.37689117 -0.24600769 109.39809998 -0.24884033 108.38964844 C-0.24164978 107.31215332 -0.23445923 106.2346582 -0.22705078 105.12451172 C-0.22734283 103.99280548 -0.22763489 102.86109924 -0.22793579 101.69509888 C-0.22653812 97.9398848 -0.21095626 94.18486708 -0.1953125 90.4296875 C-0.19158393 87.83179838 -0.18873622 85.23390787 -0.18673706 82.63601685 C-0.17987089 76.4878341 -0.16409462 70.33973287 -0.14403808 64.19158089 C-0.12170136 57.19288685 -0.11069127 50.19418946 -0.10064721 43.19546866 C-0.07972897 28.79694098 -0.04453909 14.39847301 0 0 Z " fill="#01060F" transform="translate(242,421)"/>
<path d="M0 0 C0.99 0.33 1.98 0.66 3 1 C2.67 1.33 2.34 1.66 2 2 C1.90646837 3.68801985 1.88255209 5.37995207 1.88647461 7.07055664 C1.88658791 8.69212425 1.88658791 8.69212425 1.88670349 10.34645081 C1.89186478 11.5224736 1.89702606 12.6984964 1.90234375 13.91015625 C1.9037587 15.10732773 1.90517365 16.30449921 1.90663147 17.53794861 C1.91225021 21.37949066 1.92480589 25.22097543 1.9375 29.0625 C1.94251259 31.65950437 1.94707591 34.25650965 1.95117188 36.85351562 C1.96137687 43.23571716 1.98094864 49.6177941 2 56 C-8.56 56 -19.12 56 -30 56 C-30 55.34 -30 54.68 -30 54 C-20.1 54 -10.2 54 0 54 C0 36.18 0 18.36 0 0 Z " fill="#010510" transform="translate(644,721)"/>
<path d="M0 0 C0.99 0 1.98 0 3 0 C2.67 15.51 2.34 31.02 2 47 C2.33 47 2.66 47 3 47 C2.98839844 47.71027344 2.97679687 48.42054688 2.96484375 49.15234375 C2.95582031 50.07144531 2.94679687 50.99054688 2.9375 51.9375 C2.92589844 52.85402344 2.91429687 53.77054687 2.90234375 54.71484375 C2.74050951 56.96593327 2.74050951 56.96593327 4 58 C4.04080783 59.99958364 4.04254356 62.00045254 4 64 C3.01 63.67 2.02 63.34 1 63 C-0.75124853 51.00707483 -1.19963437 39.10319262 -1.1875 27 C-1.18858765 25.93702194 -1.18858765 25.93702194 -1.18969727 24.85256958 C-1.18873451 16.5236752 -0.95292644 8.28135845 0 0 Z " fill="#222C37" transform="translate(128,360)"/>
<path d="M0 0 C0.66 0 1.32 0 2 0 C2.33 10.56 2.66 21.12 3 32 C4.98 32 6.96 32 9 32 C2.40909091 37 2.40909091 37 -1 37 C-1.0246826 32.05208706 -1.04285166 27.1042098 -1.05493164 22.15625 C-1.05996653 20.47232438 -1.06679481 18.78840314 -1.07543945 17.10449219 C-1.08754196 14.68683797 -1.09323668 12.26924144 -1.09765625 9.8515625 C-1.10281754 9.0963028 -1.10797882 8.34104309 -1.11329651 7.56289673 C-1.11387171 2.22774341 -1.11387171 2.22774341 0 0 Z " fill="#454E55" transform="translate(382,506)"/>
<path d="M0 0 C4.12878237 -0.54914839 7.89291875 -0.78254475 12 0 C15.0544104 2.59852825 17.03980585 5.5213456 19 9 C18.34 9.66 17.68 10.32 17 11 C15.99088542 9.20963542 14.98177083 7.41927083 13.97265625 5.62890625 C11.26001326 3.08612258 11.26001326 3.08612258 3 3 C3 18.84 3 34.68 3 51 C2.67 51 2.34 51 2 51 C1.97494385 50.09459473 1.9498877 49.18918945 1.92407227 48.25634766 C1.26766704 24.11513813 1.26766704 24.11513813 0 0 Z " fill="#1D2734" transform="translate(355,208)"/>
<path d="M0 0 C0.33 0 0.66 0 1 0 C1.33 2.31 1.66 4.62 2 7 C2.33 7 2.66 7 3 7 C3.02505615 7.68400879 3.0501123 8.36801758 3.07592773 9.07275391 C3.74969777 27.55247988 3.74969777 27.55247988 5 46 C4.01 46 3.02 46 2 46 C2 40.39 2 34.78 2 29 C1.34 29 0.68 29 0 29 C0 19.43 0 9.86 0 0 Z " fill="#222D3B" transform="translate(173,373)"/>
<path d="M0 0 C0.99 0.66 1.98 1.32 3 2 C1.71372289 3.17260611 0.42080217 4.3379283 -0.875 5.5 C-1.59429688 6.1496875 -2.31359375 6.799375 -3.0546875 7.46875 C-5 9 -5 9 -7 9 C-7 9.66 -7 10.32 -7 11 C-7.680625 11.61875 -7.680625 11.61875 -8.375 12.25 C-12.3217346 16.50032957 -12.51474218 22.84266272 -13.125 28.375 C-13.21136719 29.11105469 -13.29773438 29.84710937 -13.38671875 30.60546875 C-13.59681885 32.40299182 -13.79920767 34.20141342 -14 36 C-14.33 36 -14.66 36 -15 36 C-15.66780366 25.13706051 -15.35567864 15.67994929 -8.21484375 6.7734375 C-5.63795096 4.11447806 -3.08597559 2.05731706 0 0 Z " fill="#1A212B" transform="translate(991,624)"/>
<path d="M0 0 C4.29 0 8.58 0 13 0 C12.67 0.99 12.34 1.98 12 3 C9.03 3 6.06 3 3 3 C3 11.25 3 19.5 3 28 C2.67 28 2.34 28 2 28 C2 19.42 2 10.84 2 2 C1.34 2 0.68 2 0 2 C0 1.34 0 0.68 0 0 Z " fill="#202B38" transform="translate(387,208)"/>
<path d="M0 0 C0 0.66 0 1.32 0 2 C-0.79664063 1.83628906 -1.59328125 1.67257812 -2.4140625 1.50390625 C-6.76795599 0.89208462 -10.9863942 0.89200409 -15.375 0.9375 C-16.62216797 0.94426758 -16.62216797 0.94426758 -17.89453125 0.95117188 C-19.92971897 0.96286836 -21.96486923 0.98080065 -24 1 C-23.67 0.01 -23.34 -0.98 -23 -2 C-15.4382708 -4.87112014 -7.19160657 -2.9183331 0 0 Z " fill="#252C35" transform="translate(930,643)"/>
<path d="M0 0 C0.66 0.66 1.32 1.32 2 2 C-2.62 2.33 -7.24 2.66 -12 3 C-12 3.33 -12 3.66 -12 4 C-16.29 4 -20.58 4 -25 4 C-18.02441722 -0.65038852 -8.15102493 -0.87700901 0 0 Z " fill="#373B3F" transform="translate(561,617)"/>
<path d="M0 0 C0.73734375 -0.01224609 1.4746875 -0.02449219 2.234375 -0.03710938 C4.15770058 -0.04237395 6.08054263 0.06546553 8 0.1875 C8.66 0.8475 9.32 1.5075 10 2.1875 C7.89868615 4.28881385 3.45853678 3.37264741 0.5625 3.375 C-0.22705078 3.38724609 -1.01660156 3.39949219 -1.83007812 3.41210938 C-3.88807435 3.41737279 -5.94562009 3.30956285 -8 3.1875 C-8.66 2.5275 -9.32 1.8675 -10 1.1875 C-6.84044583 -0.39227708 -3.46536183 0.00302916 0 0 Z " fill="#232C36" transform="translate(343,616.8125)"/>
<path d="M0 0 C7.59 0 15.18 0 23 0 C23.33 0.99 23.66 1.98 24 3 C15.75 3 7.5 3 -1 3 C-0.67 2.01 -0.34 1.02 0 0 Z " fill="#202B39" transform="translate(264,418)"/>
<path d="M0 0 C6.6 0 13.2 0 20 0 C20.33 0.99 20.66 1.98 21 3 C14.07 3 7.14 3 0 3 C0 2.01 0 1.02 0 0 Z " fill="#1F2A37" transform="translate(1011,617)"/>
<path d="M0 0 C0.99 0 1.98 0 3 0 C3.05411124 2.41696872 3.09372278 4.83271787 3.125 7.25 C3.15013672 8.27287109 3.15013672 8.27287109 3.17578125 9.31640625 C3.21213482 13.0608235 3.07944349 15.82352727 1 19 C0.34 18.67 -0.32 18.34 -1 18 C-0.505 9.09 -0.505 9.09 0 0 Z " fill="#232C3A" transform="translate(1064,695)"/>
<path d="M0 0 C0.99 0 1.98 0 3 0 C4.10285204 5.23854718 4.56629169 10.66342068 4 16 C3.34 16.66 2.68 17.32 2 18 C0.414131 14.828262 0.62133555 11.36486178 0.4375 7.875 C0.39431641 7.12089844 0.35113281 6.36679687 0.30664062 5.58984375 C0.2005168 3.72678112 0.09974999 1.86341476 0 0 Z " fill="#303841" transform="translate(959,692)"/>
<path d="M0 0 C1.14210938 -0.01417969 2.28421875 -0.02835937 3.4609375 -0.04296875 C6.46436816 0.17579966 8.10425934 0.61669363 10.625 2.1875 C10.625 2.8475 10.625 3.5075 10.625 4.1875 C9.573125 4.06181641 9.573125 4.06181641 8.5 3.93359375 C2.62540763 3.30303288 -2.5488496 3.19815371 -8.375 4.1875 C-8.375 3.1975 -8.375 2.2075 -8.375 1.1875 C-5.5555932 -0.2222034 -3.14232774 0.01765353 0 0 Z " fill="#283039" transform="translate(376.375,353.8125)"/>
<path d="M0 0 C2.33294775 -0.04241723 4.66702567 -0.04092937 7 0 C7.33 0.33 7.66 0.66 8 1 C9.34747084 1.23075082 10.70377565 1.41153063 12.0625 1.5625 C13.361875 1.706875 14.66125 1.85125 16 2 C16 2.66 16 3.32 16 4 C18.31 4.33 20.62 4.66 23 5 C23 5.66 23 6.32 23 7 C15.00558401 5.80398501 7.602309 3.73311633 0 1 C0 0.67 0 0.34 0 0 Z " fill="#252B32" transform="translate(892,684)"/>
<path d="M0 0 C6.93 0 13.86 0 21 0 C21 0.99 21 1.98 21 3 C18.43721301 3.05420701 15.87558517 3.09377007 13.3125 3.125 C12.59126953 3.14175781 11.87003906 3.15851562 11.12695312 3.17578125 C6.95123219 3.21391569 3.7505862 2.8789919 0 1 C0 0.67 0 0.34 0 0 Z " fill="#1E2936" transform="translate(907,617)"/>
<path d="M0 0 C5.94 0 11.88 0 18 0 C14.25140115 3.74859885 12.0285937 4.15001036 6.9375 4.1875 C5.62072266 4.20876953 5.62072266 4.20876953 4.27734375 4.23046875 C2 4 2 4 0 2 C0 1.34 0 0.68 0 0 Z " fill="#1A232E" transform="translate(370,398)"/>
<path d="M0 0 C0.66 0.33 1.32 0.66 2 1 C1.375 2.9375 1.375 2.9375 0 5 C-4.22841821 5.97816995 -8.35831685 6.16235956 -12.6875 6.1875 C-13.80511719 6.20167969 -14.92273438 6.21585938 -16.07421875 6.23046875 C-19 6 -19 6 -22 4 C-20.24623047 3.94392578 -20.24623047 3.94392578 -18.45703125 3.88671875 C-16.90882325 3.8210372 -15.36064758 3.75459061 -13.8125 3.6875 C-13.04357422 3.66494141 -12.27464844 3.64238281 -11.48242188 3.61914062 C-6.7667027 3.39651011 -4.00303554 2.69130638 0 0 Z " fill="#292E34" transform="translate(930,708)"/>
<path d="M0 0 C2.29141286 -0.05384521 4.58318188 -0.09272087 6.875 -0.125 C8.78925781 -0.15980469 8.78925781 -0.15980469 10.7421875 -0.1953125 C14 0 14 0 16 2 C12.93466836 3.53266582 9.73245728 3.10276471 6.375 3.0625 C5.66859375 3.05798828 4.9621875 3.05347656 4.234375 3.04882812 C2.48954725 3.03703875 0.744763 3.01910324 -1 3 C-0.67 2.01 -0.34 1.02 0 0 Z " fill="#232C36" transform="translate(475,617)"/>
<path d="M0 0 C1.07894531 0.03480469 2.15789063 0.06960938 3.26953125 0.10546875 C4.35621094 0.13253906 5.44289063 0.15960937 6.5625 0.1875 C7.80966797 0.23970703 7.80966797 0.23970703 9.08203125 0.29296875 C9.08203125 0.95296875 9.08203125 1.61296875 9.08203125 2.29296875 C10.07203125 2.62296875 11.06203125 2.95296875 12.08203125 3.29296875 C6.14203125 3.29296875 0.20203125 3.29296875 -5.91796875 3.29296875 C-2.91796875 0.29296875 -2.91796875 0.29296875 0 0 Z " fill="#252D36" transform="translate(670.91796875,642.70703125)"/>
<path d="M0 0 C0.66 0.33 1.32 0.66 2 1 C-1.63 4.63 -5.26 8.26 -9 12 C-9.99 11.34 -10.98 10.68 -12 10 C-10.92807816 8.6781638 -9.84197305 7.36782073 -8.75 6.0625 C-8.14671875 5.33160156 -7.5434375 4.60070313 -6.921875 3.84765625 C-4.86856803 1.87364365 -3.74867947 1.46398649 -1 1 C-0.67 0.67 -0.34 0.34 0 0 Z " fill="#1D2734" transform="translate(330,49)"/>
<path d="M0 0 C0.33 0 0.66 0 1 0 C1.06058594 0.78503906 1.12117188 1.57007812 1.18359375 2.37890625 C1.70295813 9.21823799 1.70295813 9.21823799 2.6875 16 C3.01558287 19.1495956 2.75644107 20.41699842 1 23 C0.34 23 -0.32 23 -1 23 C-0.67 15.41 -0.34 7.82 0 0 Z " fill="#1A2735" transform="translate(438,83)"/>
<path d="M0 0 C0 0.66 0 1.32 0 2 C2.64 2 5.28 2 8 2 C8 2.99 8 3.98 8 5 C1.8887076 3.9611908 -4.07704464 2.84269722 -10 1 C-6.1496895 -1.56687367 -4.41430237 -0.83288724 0 0 Z " fill="#282F38" transform="translate(1016,687)"/>
<path d="M0 0 C1.41655793 -0.0272415 2.83327045 -0.04650467 4.25 -0.0625 C5.43335938 -0.07990234 5.43335938 -0.07990234 6.640625 -0.09765625 C8.90691002 -0.00385306 10.8288895 0.36758937 13 1 C13 1.66 13 2.32 13 3 C13.99 3.33 14.98 3.66 16 4 C15.34 4.66 14.68 5.32 14 6 C13.34 5.690625 12.68 5.38125 12 5.0625 C8.29523985 3.75039745 4.90736009 3.39735865 1 3 C0.67 2.01 0.34 1.02 0 0 Z " fill="#2A3440" transform="translate(336,562)"/>
<path d="M0 0 C4.95 0.33 9.9 0.66 15 1 C15.33 1.99 15.66 2.98 16 4 C10.26157749 4.20413361 5.39460953 4.27141454 0 2 C0 1.34 0 0.68 0 0 Z " fill="#262F3C" transform="translate(331,709)"/>
<path d="M0 0 C0.33 0 0.66 0 1 0 C1.28673875 7.16846871 0.44852763 12.59559154 -3 19 C-4.29246898 15.27842266 -3.79108594 12.22231757 -3.1875 8.375 C-3.01605469 7.22773438 -2.84460938 6.08046875 -2.66796875 4.8984375 C-2 2 -2 2 0 0 Z " fill="#1E2733" transform="translate(407,379)"/>
<path d="M0 0 C0.99 0.33 1.98 0.66 3 1 C2.34 4.63 1.68 8.26 1 12 C0.34 12 -0.32 12 -1 12 C-1.33 12.66 -1.66 13.32 -2 14 C-2.05437607 12.41705218 -2.09296271 10.83355744 -2.125 9.25 C-2.14820313 8.36828125 -2.17140625 7.4865625 -2.1953125 6.578125 C-1.99139502 3.8864142 -1.36551721 2.30095026 0 0 Z " fill="#1A232F" transform="translate(362,375)"/>
<path d="M0 0 C0.33 0 0.66 0 1 0 C1.125 7.625 1.125 7.625 0 11 C-0.66 11 -1.32 11 -2 11 C-2.33 12.98 -2.66 14.96 -3 17 C-3.66 16.67 -4.32 16.34 -5 16 C-4.54548816 14.26982492 -4.08621143 12.54090123 -3.625 10.8125 C-3.36976563 9.84957031 -3.11453125 8.88664062 -2.8515625 7.89453125 C-2.05233704 5.17789793 -1.0968638 2.60862825 0 0 Z " fill="#262D36" transform="translate(143,298)"/>
<path d="M0 0 C0.66 0 1.32 0 2 0 C2.375 2.1875 2.375 2.1875 2 5 C0.16038352 6.99022836 -1.79186148 8.38989899 -4 10 C-4.66 9.34 -5.32 8.68 -6 8 C-5.04956626 6.66102417 -4.08940853 5.32894573 -3.125 4 C-2.59132813 3.2575 -2.05765625 2.515 -1.5078125 1.75 C-1.01023437 1.1725 -0.51265625 0.595 0 0 Z " fill="#232C37" transform="translate(977,708)"/>
<path d="M0 0 C0.66 0 1.32 0 2 0 C3.5912689 4.873261 4.21192221 8.80790596 4 14 C3.01 14 2.02 14 1 14 C1.020625 12.80375 1.04125 11.6075 1.0625 10.375 C1.06882571 6.81995131 0.69888875 3.49444376 0 0 Z " fill="#232A32" transform="translate(593,642)"/>
<path d="M0 0 C0 1.98 0 3.96 0 6 C-0.66 6 -1.32 6 -2 6 C-2.33 9.63 -2.66 13.26 -3 17 C-3.66 17 -4.32 17 -5 17 C-4.71943562 14.35254679 -4.42614369 11.70762036 -4.125 9.0625 C-4.04636719 8.30775391 -3.96773437 7.55300781 -3.88671875 6.77539062 C-3.66116192 4.84080701 -3.33741026 2.91823981 -3 1 C-1 0 -1 0 0 0 Z " fill="#282F38" transform="translate(579,412)"/>
<path d="M0 0 C6.93 0.495 6.93 0.495 14 1 C10.01219998 2.99390001 8.52852428 3.22686963 4.25 3.125 C3.26515625 3.10695313 2.2803125 3.08890625 1.265625 3.0703125 C0.14414062 3.03550781 0.14414062 3.03550781 -1 3 C-0.67 2.01 -0.34 1.02 0 0 Z " fill="#232B36" transform="translate(461,544)"/>
<path d="M0 0 C4.16138263 -0.08159574 7.9472484 0.01751476 12 1 C12 1.33 12 1.66 12 2 C3.09 2.99 3.09 2.99 -6 4 C-6 3.34 -6 2.68 -6 2 C-4.02 2 -2.04 2 0 2 C0 1.34 0 0.68 0 0 Z " fill="#2E343D" transform="translate(296,529)"/>
<path d="M0 0 C3.90285767 1.58667578 6.33520982 4.13350481 9.25 7.125 C10.14203125 8.03507813 11.0340625 8.94515625 11.953125 9.8828125 C12.62859375 10.58148437 13.3040625 11.28015625 14 12 C13.34 12.66 12.68 13.32 12 14 C9.99699451 11.85690336 7.99750256 9.71071503 6 7.5625 C5.42765625 6.95083984 4.8553125 6.33917969 4.265625 5.70898438 C0 1.11328125 0 1.11328125 0 0 Z " fill="#2D3238" transform="translate(260,697)"/>
<path d="M0 0 C1.258125 0.12375 2.51625 0.2475 3.8125 0.375 C4.87404297 0.47941406 4.87404297 0.47941406 5.95703125 0.5859375 C8 1 8 1 11 3 C10.67 3.99 10.34 4.98 10 6 C8.5164999 5.57742724 7.03823576 5.13643678 5.5625 4.6875 C4.73878906 4.44386719 3.91507813 4.20023438 3.06640625 3.94921875 C2.04353516 3.47935547 2.04353516 3.47935547 1 3 C0.67 2.01 0.34 1.02 0 0 Z " fill="#202A34" transform="translate(802,643)"/>
<path d="M0 0 C1.2065625 0.0309375 1.2065625 0.0309375 2.4375 0.0625 C2.7675 0.7225 3.0975 1.3825 3.4375 2.0625 C-3.65576321 3.78580907 -10.27218976 4.3119783 -17.5625 4.0625 C-17.5625 3.7325 -17.5625 3.4025 -17.5625 3.0625 C-16.56347656 2.92972656 -15.56445312 2.79695312 -14.53515625 2.66015625 C-13.24480469 2.48355469 -11.95445312 2.30695312 -10.625 2.125 C-9.33722656 1.95097656 -8.04945313 1.77695312 -6.72265625 1.59765625 C-3.56478463 1.06288689 -3.03631574 0.07405648 0 0 Z " fill="#4A5056" transform="translate(388.5625,573.9375)"/>
<path d="M0 0 C0.66 0 1.32 0 2 0 C3.17881287 3.68379022 3.21358801 7.15541573 3 11 C2.34 11.66 1.68 12.32 1 13 C-0.32229189 10.35541621 -0.09677194 8.32238699 -0.0625 5.375 C-0.05347656 4.37210937 -0.04445313 3.36921875 -0.03515625 2.3359375 C-0.02355469 1.56507813 -0.01195312 0.79421875 0 0 Z " fill="#242A33" transform="translate(392,377)"/>
<path d="M0 0 C0.99 0 1.98 0 3 0 C1.50829734 4.9723422 -0.60457417 9.41845739 -3 14 C-4.37095624 10.30962722 -3.60010967 8.29116165 -2.0625 4.75 C-1.68222656 3.85796875 -1.30195313 2.9659375 -0.91015625 2.046875 C-0.60980469 1.37140625 -0.30945313 0.6959375 0 0 Z " fill="#2A3039" transform="translate(426,370)"/>
<path d="M0 0 C-0.66 1.98 -1.32 3.96 -2 6 C-4.66666667 6 -7.33333333 6 -10 6 C-4.2 0 -4.2 0 0 0 Z " fill="#2E333A" transform="translate(490,253)"/>
<path d="M0 0 C2.49609375 0.2421875 2.49609375 0.2421875 5.4375 0.875 C8.41206911 1.50080815 10.95416527 2 14 2 C14 2.99 14 3.98 14 5 C12.27073126 4.68806536 10.54158956 4.37542638 8.8125 4.0625 C7.84957031 3.88847656 6.88664062 3.71445313 5.89453125 3.53515625 C3.25760028 3.0476265 0.6280095 2.53328895 -2 2 C-1.34 1.34 -0.68 0.68 0 0 Z " fill="#32363C" transform="translate(419,193)"/>
<path d="M0 0 C2.0625 0.4375 2.0625 0.4375 4 1 C1.57869669 3.42130331 0.19888623 3.52840504 -3.125 4.125 C-4.03507812 4.29257812 -4.94515625 4.46015625 -5.8828125 4.6328125 C-6.58148437 4.75398437 -7.28015625 4.87515625 -8 5 C-8 4.01 -8 3.02 -8 2 C-6.865625 1.855625 -5.73125 1.71125 -4.5625 1.5625 C-1.19222799 1.38828522 -1.19222799 1.38828522 0 0 Z " fill="#2B313B" transform="translate(1041,733)"/>
<path d="M0 0 C-2 3 -2 3 -4.3828125 3.51171875 C-5.28773438 3.56972656 -6.19265625 3.62773438 -7.125 3.6875 C-8.49011719 3.78611328 -8.49011719 3.78611328 -9.8828125 3.88671875 C-10.93082031 3.94279297 -10.93082031 3.94279297 -12 4 C-12 3.01 -12 2.02 -12 1 C-8.0186217 -0.3271261 -4.14954773 -0.06915913 0 0 Z " fill="#26313D" transform="translate(372,53)"/>
<path d="M0 0 C3 0 3 0 5.4375 2.375 C6.283125 3.24125 7.12875 4.1075 8 5 C10.16620544 6.29519995 10.16620544 6.29519995 12 7 C12 7.66 12 8.32 12 9 C7.69235185 7.43358249 3.93828536 5.31663844 0 3 C0 2.01 0 1.02 0 0 Z " fill="#252A31" transform="translate(864,720)"/>
<path d="M0 0 C0.99 0 1.98 0 3 0 C3.226875 0.70125 3.45375 1.4025 3.6875 2.125 C5.31656867 5.69343613 7.40640731 8.06514511 10 11 C9.01 11 8.02 11 7 11 C5.4296875 9.35546875 5.4296875 9.35546875 3.875 7.1875 C3.35679687 6.47980469 2.83859375 5.77210938 2.3046875 5.04296875 C1 3 1 3 0 0 Z " fill="#2D323A" transform="translate(874,667)"/>
<path d="M0 0 C-0.66 2.64 -1.32 5.28 -2 8 C-2.66 8 -3.32 8 -4 8 C-4.66 5.69 -5.32 3.38 -6 1 C-3 0 -3 0 0 0 Z " fill="#272C35" transform="translate(379,484)"/>
<path d="M0 0 C-0.37507382 2.71928517 -0.84218661 3.84218661 -2.8125 5.8125 C-5 7 -5 7 -7.13671875 6.57421875 C-7.75160156 6.38472656 -8.36648438 6.19523438 -9 6 C-7.8803014 4.99406757 -6.7540588 3.9954151 -5.625 3 C-4.68527344 2.1646875 -4.68527344 2.1646875 -3.7265625 1.3125 C-2 0 -2 0 0 0 Z " fill="#28313B" transform="translate(657,624)"/>
<path d="M0 0 C4.41309542 3.15221101 7.00793014 6.55463907 10 11 C9.01 11 8.02 11 7 11 C5.17578125 9.1015625 5.17578125 9.1015625 3.3125 6.625 C2.68988281 5.81289063 2.06726563 5.00078125 1.42578125 4.1640625 C0 2 0 2 0 0 Z " fill="#22272E" transform="translate(184,545)"/>
<path d="M0 0 C0.33 0 0.66 0 1 0 C1.33 4.62 1.66 9.24 2 14 C1.01 14 0.02 14 -1 14 C-1.08333357 9.1666528 -0.95261487 4.76307437 0 0 Z " fill="#2F3741" transform="translate(176,405)"/>
<path d="M0 0 C-0.375 2.4375 -0.375 2.4375 -1 5 C-1.99 5.495 -1.99 5.495 -3 6 C-2.67 4.68 -2.34 3.36 -2 2 C-4.31 2.33 -6.62 2.66 -9 3 C-7 0 -7 0 -5.0625 -0.75 C-3 -1 -3 -1 0 0 Z " fill="#0E1622" transform="translate(486,259)"/>
<path d="M0 0 C0.33 0.66 0.66 1.32 1 2 C-3.29 2 -7.58 2 -12 2 C-7.69698287 -0.86867809 -5.02485414 -1.49387555 0 0 Z " fill="#2A323C" transform="translate(548,619)"/>
<path d="M0 0 C0.66 0 1.32 0 2 0 C5 5.75 5 5.75 5 8 C5.66 8 6.32 8 7 8 C6.67 9.32 6.34 10.64 6 12 C3.25207517 8.59780735 0 4.51535412 0 0 Z " fill="#2A2F37" transform="translate(150,492)"/>
<path d="M0 0 C0 0.66 0 1.32 0 2 C-2.64738916 3.4606285 -3.89448334 4 -7 4 C-7 4.66 -7 5.32 -7 6 C-7.99 6 -8.98 6 -10 6 C-9.67 4.68 -9.34 3.36 -9 2 C-2.25 0 -2.25 0 0 0 Z " fill="#2A3038" transform="translate(422,424)"/>
<path d="M0 0 C-0.47996422 4.99162787 -0.88776687 6.85035583 -4 11 C-4 7.7 -4 4.4 -4 1 C-2 0 -2 0 0 0 Z " fill="#1A2532" transform="translate(484,261)"/>
<path d="M0 0 C2.32590854 3.63423209 2.16265833 6.77088331 2 11 C1.01 11 0.02 11 -1 11 C-1.14285714 3.57142857 -1.14285714 3.57142857 0 0 Z " fill="#1F2731" transform="translate(282,664)"/>
<path d="M0 0 C3.91211733 1.15585285 6.8745041 2.35534962 10 5 C6.05272412 5.17942163 3.4019487 5.09350689 0 3 C0 2.01 0 1.02 0 0 Z " fill="#262E38" transform="translate(936,668)"/>
<path d="M0 0 C3 4 6 8 9 12 C8.01 12 7.02 12 6 12 C4.39453125 10.390625 4.39453125 10.390625 2.8125 8.25 C2.01779297 7.20585937 2.01779297 7.20585937 1.20703125 6.140625 C0 4 0 4 0 0 Z " fill="#2C3138" transform="translate(351,395)"/>
<path d="M0 0 C0 0.99 0 1.98 0 3 C-3.96 3 -7.92 3 -12 3 C-12 2.67 -12 2.34 -12 2 C-7.82262526 0.40861915 -4.46839215 -0.21278058 0 0 Z " fill="#08111C" transform="translate(365,188)"/>
<path d="M0 0 C1.32 0.66 2.64 1.32 4 2 C1.03 4.475 1.03 4.475 -2 7 C-2.66 6.34 -3.32 5.68 -4 5 C-2.68 3.35 -1.36 1.7 0 0 Z " fill="#1C2633" transform="translate(873,708)"/>
<path d="M0 0 C0.515625 0.763125 1.03125 1.52625 1.5625 2.3125 C4.55847644 5.61575607 6.85712514 6.48625726 11 8 C9.25 9.125 9.25 9.125 7 10 C3.56223343 8.95825255 1.79862894 7.05766919 0 4 C0 2.68 0 1.36 0 0 Z " fill="#272C34" transform="translate(1007,653)"/>
<path d="M0 0 C0.66 0.33 1.32 0.66 2 1 C1.60196439 3.88575819 1.20990931 4.82189513 -1.0625 6.75 C-1.701875 7.1625 -2.34125 7.575 -3 8 C-3.66 7.34 -4.32 6.68 -5 6 C-3.35 4.02 -1.7 2.04 0 0 Z " fill="#2A323D" transform="translate(355,108)"/>
<path d="M0 0 C4.54805635 -0.17835515 7.8794254 0.00214565 12 2 C11.67 2.66 11.34 3.32 11 4 C7.0507432 3.44894091 3.65079826 2.61064629 0 1 C0 0.67 0 0.34 0 0 Z " fill="#2C3239" transform="translate(892,684)"/>
<path d="M0 0 C-5.8 4.4 -5.8 4.4 -9 6 C-9 5.34 -9 4.68 -9 4 C-9.66 3.67 -10.32 3.34 -11 3 C-7.14243493 0.84694043 -4.44870215 -0.39253254 0 0 Z " fill="#111721" transform="translate(472,619)"/>
<path d="M0 0 C0 0.99 0 1.98 0 3 C-0.7425 2.979375 -1.485 2.95875 -2.25 2.9375 C-4.70462279 2.99328688 -6.66109261 3.3069904 -9 4 C-9 3.01 -9 2.02 -9 1 C-5.846632 0.29925156 -3.27275026 0 0 0 Z " fill="#25303B" transform="translate(415,544)"/>
<path d="M0 0 C-2.85306797 2.32472205 -5.54074837 3.7508258 -9 5 C-8.625 3.0625 -8.625 3.0625 -8 1 C-5.29120665 -0.35439668 -2.99066732 -0.06501451 0 0 Z " fill="#2E353E" transform="translate(391,538)"/>
<path d="M0 0 C0.33 0 0.66 0 1 0 C1 2.97 1 5.94 1 9 C0.01 8.67 -0.98 8.34 -2 8 C-2 6.02 -2 4.04 -2 2 C-1.34 2 -0.68 2 0 2 C0 1.34 0 0.68 0 0 Z " fill="#1B232E" transform="translate(257,497)"/>
<path d="M0 0 C0.66 0 1.32 0 2 0 C2.66 2.31 3.32 4.62 4 7 C3.34 7 2.68 7 2 7 C2 6.34 2 5.68 2 5 C0.68 5.33 -0.64 5.66 -2 6 C-1.34 4.02 -0.68 2.04 0 0 Z " fill="#232830" transform="translate(376,275)"/>
<path d="M0 0 C0 3 0 3 -1.3125 4.38671875 C-2.875 5.59114583 -4.4375 6.79557292 -6 8 C-6.66 7.34 -7.32 6.68 -8 6 C-5.63379989 3.38472619 -3.057952 1.73559438 0 0 Z " fill="#1E2936" transform="translate(195,219)"/>
<path d="M0 0 C2.97 0.33 5.94 0.66 9 1 C7 3 7 3 5.0546875 3.1953125 C3.03645833 3.13020833 1.01822917 3.06510417 -1 3 C-0.67 2.01 -0.34 1.02 0 0 Z " fill="#232A35" transform="translate(807,667)"/>
<path d="M0 0 C0 3.19219704 -0.23605791 4.39608549 -2 7 C-4.625 8.25 -4.625 8.25 -7 9 C-5.03681826 5.46627288 -2.95929119 2.75520215 0 0 Z " fill="#3B3F46" transform="translate(301,632)"/>
<path d="M0 0 C-0.33 1.65 -0.66 3.3 -1 5 C-2.65 4.67 -4.3 4.34 -6 4 C-5.67 3.01 -5.34 2.02 -5 1 C-3 0 -3 0 0 0 Z " fill="#1B2330" transform="translate(320,484)"/>
<path d="M0 0 C0.99 0 1.98 0 3 0 C2.51421457 3.12290635 2.0013988 5.99580359 1 9 C0.01 9 -0.98 9 -2 9 C-1.34 6.03 -0.68 3.06 0 0 Z " fill="#202935" transform="translate(570,442)"/>
<path d="M0 0 C0.66 0.33 1.32 0.66 2 1 C1.3125 2.9375 1.3125 2.9375 0 5 C-2.625 5.75 -2.625 5.75 -5 6 C-3.63016497 2.83884224 -3.0109362 2.0072908 0 0 Z " fill="#111924" transform="translate(407,311)"/>
<path d="M0 0 C3.7952131 1.49097658 5.61042731 3.75700849 8 7 C5 7 5 7 2.3125 4.625 C0 2 0 2 0 0 Z " fill="#333A42" transform="translate(518,245)"/>
<path d="M0 0 C2.46800047 1.15173355 4.04783565 2.04783565 6 4 C3.125 4.625 3.125 4.625 0 5 C-0.66 4.34 -1.32 3.68 -2 3 C-1.34 2.01 -0.68 1.02 0 0 Z " fill="#1E252F" transform="translate(880,698)"/>
<path d="M0 0 C0.66 0.33 1.32 0.66 2 1 C-1.465 3.97 -1.465 3.97 -5 7 C-5.66 6.67 -6.32 6.34 -7 6 C-5.01180815 3.01771223 -3.42353587 1.21480305 0 0 Z " fill="#1B2530" transform="translate(297,639)"/>
<path d="M0 0 C0.33 0.99 0.66 1.98 1 3 C-0.65 4.65 -2.3 6.3 -4 8 C-4 5.69 -4 3.38 -4 1 C-2.68 0.67 -1.36 0.34 0 0 Z " fill="#262E36" transform="translate(215,266)"/>
<path d="M0 0 C2.39223697 2.39223697 2.6758631 3.67759676 3 7 C2.01 8.485 2.01 8.485 1 10 C-0.83691257 6.21812119 -1.15837626 4.05431692 0 0 Z " fill="#1E2631" transform="translate(285,695)"/>
<path d="M0 0 C1.875 0.1875 1.875 0.1875 4 1 C5.25 3.5625 5.25 3.5625 6 6 C5.34 6.66 4.68 7.32 4 8 C0 2.25 0 2.25 0 0 Z " fill="#1C2633" transform="translate(842,635)"/>
<path d="M0 0 C0.66 0.66 1.32 1.32 2 2 C0.54077307 1.88590407 -0.91740598 1.75834456 -2.375 1.625 C-3.59316406 1.52058594 -3.59316406 1.52058594 -4.8359375 1.4140625 C-7 1 -7 1 -9 -1 C-5.19825711 -2.26724763 -3.6488868 -1.4750819 0 0 Z " fill="#212A33" transform="translate(831,623)"/>
<path d="M0 0 C5.75 1.75 5.75 1.75 8 4 C6.25 4.6875 6.25 4.6875 4 5 C1.75 3.6875 1.75 3.6875 0 2 C0 1.34 0 0.68 0 0 Z " fill="#242F3A" transform="translate(355,533)"/>
<path d="M0 0 C2.02045442 0.60183749 4.02111039 1.27306096 6 2 C6.33 2.66 6.66 3.32 7 4 C6.34 4.66 5.68 5.32 5 6 C3.2925002 4.71937515 1.62626404 3.38232443 0 2 C0 1.34 0 0.68 0 0 Z " fill="#242E3A" transform="translate(388,356)"/>
<path d="M0 0 C1.65 1.65 3.3 3.3 5 5 C4.67 5.66 4.34 6.32 4 7 C3.01 6.67 2.02 6.34 1 6 C-0.1875 3.4375 -0.1875 3.4375 -1 1 C-0.67 0.67 -0.34 0.34 0 0 Z " fill="#1E2733" transform="translate(374,219)"/>
<path d="M0 0 C0.99 0.33 1.98 0.66 3 1 C3.33 3.31 3.66 5.62 4 8 C2.68 7.67 1.36 7.34 0 7 C0 4.69 0 2.38 0 0 Z " fill="#2A3543" transform="translate(328,95)"/>
<path d="M0 0 C3.36720387 1.39332574 4.9859524 2.9789286 7 6 C4 6 4 6 1.8125 4.125 C0 2 0 2 0 0 Z " fill="#353C45" transform="translate(183,692)"/>
<path d="M0 0 C0.99 0.33 1.98 0.66 3 1 C4.1875 4.5625 4.1875 4.5625 5 8 C4.01 8.495 4.01 8.495 3 9 C0 3.375 0 3.375 0 0 Z " fill="#2B3139" transform="translate(144,691)"/>
<path d="M0 0 C4.15414253 1.22736029 6.43688534 2.327664 10 5 C6.7 4.34 3.4 3.68 0 3 C0 2.01 0 1.02 0 0 Z " fill="#2E3239" transform="translate(1040,668)"/>
<path d="M0 0 C0.66 1.32 1.32 2.64 2 4 C0.68 5.32 -0.64 6.64 -2 8 C-2.33 7.01 -2.66 6.02 -3 5 C-1.5625 2.3125 -1.5625 2.3125 0 0 Z " fill="#252F3B" transform="translate(152,611)"/>
<path d="M0 0 C0.99 0 1.98 0 3 0 C2.67 1.98 2.34 3.96 2 6 C1.01 6 0.02 6 -1 6 C-0.67 4.02 -0.34 2.04 0 0 Z " fill="#212A35" transform="translate(613,458)"/>
<path d="M0 0 C1.96713413 2.95070119 2.65358161 4.53581611 3 8 C2.34 8.99 1.68 9.98 1 11 C0.30710631 7.27569643 -0.11144596 3.78916254 0 0 Z " fill="#28313B" transform="translate(611,303)"/>
<path d="M0 0 C0.99 0 1.98 0 3 0 C3.66 1.98 4.32 3.96 5 6 C4.01 6 3.02 6 2 6 C1.34 4.02 0.68 2.04 0 0 Z " fill="#1F2732" transform="translate(559,302)"/>
<path d="M0 0 C0.66 0.33 1.32 0.66 2 1 C1.67 3.31 1.34 5.62 1 8 C0.34 7.67 -0.32 7.34 -1 7 C-1.04254356 5.00045254 -1.04080783 2.99958364 -1 1 C-0.67 0.67 -0.34 0.34 0 0 Z " fill="#1E2731" transform="translate(309,81)"/>
<path d="M0 0 C0.78375 0.04125 1.5675 0.0825 2.375 0.125 C2.375 1.115 2.375 2.105 2.375 3.125 C0.065 2.795 -2.245 2.465 -4.625 2.125 C-2.625 0.125 -2.625 0.125 0 0 Z " fill="#222932" transform="translate(526.625,563.875)"/>
<path d="M0 0 C0.99 0 1.98 0 3 0 C2.34 2.31 1.68 4.62 1 7 C0.34 6.67 -0.32 6.34 -1 6 C-0.67 4.02 -0.34 2.04 0 0 Z " fill="#222A33" transform="translate(401,419)"/>
<path d="M0 0 C0.66 0.99 1.32 1.98 2 3 C1.125 6.1875 1.125 6.1875 0 9 C-1.125 7.3125 -1.125 7.3125 -2 5 C-1.125 2.25 -1.125 2.25 0 0 Z " fill="#212A34" transform="translate(355,324)"/>
<path d="M0 0 C0.66 0 1.32 0 2 0 C0.25 5.75 0.25 5.75 -2 8 C-3.24546405 5.50907189 -2.7767578 4.58919267 -2 2 C-1.34 2 -0.68 2 0 2 C0 1.34 0 0.68 0 0 Z " fill="#242A32" transform="translate(195,297)"/>
<path d="M0 0 C1.65 1.65 3.3 3.3 5 5 C4.34 6.32 3.68 7.64 3 9 C0 3.375 0 3.375 0 0 Z " fill="#182634" transform="translate(603,288)"/>
<path d="M0 0 C0.66 0.33 1.32 0.66 2 1 C0.515 3.475 0.515 3.475 -1 6 C-2.32 5.34 -3.64 4.68 -5 4 C-3.35 2.68 -1.7 1.36 0 0 Z " fill="#252E37" transform="translate(221,193)"/>
<path d="M0 0 C0 0.99 0 1.98 0 3 C-2.3125 3.625 -2.3125 3.625 -5 4 C-5.99 3.34 -6.98 2.68 -8 2 C-2.25 0 -2.25 0 0 0 Z " fill="#202832" transform="translate(296,154)"/>
</svg>
