<?xml version="1.0" encoding="UTF-8"?>
<svg xmlns="http://www.w3.org/2000/svg" xmlns:xlink="http://www.w3.org/1999/xlink" width="2000px" height="1332px" viewBox="0 0 1999 1332" version="1.1">
<g id="surface1">
<path style=" stroke:none;fill-rule:nonzero;fill:rgb(94.901961%,94.901961%,94.901961%);fill-opacity:1;" d="M 692.476562 73.445312 C 699.726562 78.980469 706.136719 85.285156 712.5 91.804688 C 713.527344 92.796875 714.554688 93.792969 715.613281 94.816406 C 731.957031 111.839844 736.570312 135.429688 736.464844 158.078125 C 735.867188 185.628906 723.253906 205.222656 704.382812 224.328125 C 697.851562 230.21875 690.074219 234.363281 682.464844 238.691406 C 684.273438 238.980469 684.273438 238.980469 686.117188 239.273438 C 761.332031 251.433594 831.488281 276.875 891.039062 325.488281 C 892.699219 326.808594 894.359375 328.132812 896.070312 329.492188 C 920.074219 348.910156 942.632812 371.171875 960.789062 396.183594 C 962.8125 398.964844 964.878906 401.707031 966.957031 404.449219 C 1009.210938 461.050781 1034.582031 529.359375 1042.882812 599.234375 C 1043.042969 600.398438 1043.199219 601.5625 1043.359375 602.765625 C 1047.988281 641.035156 1046.960938 683.332031 1039.546875 721.082031 C 1039.074219 723.574219 1039.074219 723.574219 1038.597656 726.113281 C 1031.03125 765.097656 1018.554688 803.03125 999.5 837.925781 C 998.464844 839.957031 997.433594 841.996094 996.410156 844.035156 C 980.003906 876.40625 958.269531 905.585938 933.503906 932.003906 C 930.082031 935.691406 926.800781 939.429688 923.578125 943.292969 C 919.40625 948.089844 919.40625 948.089844 914.402344 951.429688 C 910.777344 951.507812 910.777344 951.507812 906.476562 951.011719 C 904.839844 950.828125 903.207031 950.644531 901.519531 950.457031 C 899.714844 950.226562 897.90625 949.996094 896.046875 949.757812 C 894.101562 949.511719 892.15625 949.265625 890.152344 949.007812 C 881.597656 947.886719 873.046875 946.703125 864.5 945.519531 C 861.324219 945.089844 861.324219 945.089844 858.085938 944.648438 C 856.199219 944.386719 854.316406 944.125 852.375 943.859375 C 837.652344 942.070312 823.144531 941.152344 808.3125 941.132812 C 806.515625 941.125 804.714844 941.121094 802.863281 941.113281 C 797.074219 941.097656 791.289062 941.097656 785.5 941.101562 C 783.53125 941.101562 781.5625 941.097656 779.535156 941.097656 C 748.730469 941.109375 718.144531 941.785156 687.46875 944.75 C 685.429688 944.925781 685.429688 944.925781 683.351562 945.101562 C 674.4375 945.984375 671.917969 948.332031 665.777344 954.765625 C 656.71875 960.351562 648.140625 964.21875 637.410156 964.78125 C 635.382812 964.90625 635.382812 964.90625 633.316406 965.035156 C 617.574219 965.597656 601.449219 963.355469 589.019531 953.097656 C 587.527344 951.398438 587.527344 951.398438 586.007812 949.667969 C 581.570312 945.734375 578.828125 945.226562 573 944.453125 C 570.328125 944.085938 570.328125 944.085938 567.601562 943.710938 C 565.859375 943.503906 564.117188 943.296875 562.324219 943.082031 C 560.902344 942.898438 559.484375 942.710938 558.023438 942.519531 C 493.75 934.742188 426.089844 937.484375 362.792969 950.53125 C 361.042969 950.886719 359.292969 951.242188 357.488281 951.609375 C 355.953125 951.9375 354.417969 952.265625 352.839844 952.601562 C 347.207031 953.285156 343.835938 952.785156 339.300781 949.3125 C 338.40625 948.421875 337.507812 947.527344 336.585938 946.609375 C 335.570312 945.605469 334.558594 944.601562 333.511719 943.570312 C 332.445312 942.480469 331.378906 941.390625 330.28125 940.265625 C 329.167969 939.136719 328.054688 938.007812 326.910156 936.84375 C 316.589844 926.210938 307.414062 914.980469 298.683594 903.023438 C 297.453125 901.351562 297.453125 901.351562 296.199219 899.644531 C 284.398438 883.503906 273.488281 867.011719 263.640625 849.609375 C 263.027344 848.542969 262.417969 847.480469 261.785156 846.382812 C 237.175781 803.269531 222.503906 755.011719 215.25 706.058594 C 215.054688 704.808594 214.859375 703.558594 214.660156 702.273438 C 202.667969 623.128906 217.210938 539.035156 251.960938 467.367188 C 252.570312 466.109375 253.175781 464.847656 253.804688 463.550781 C 268.011719 434.492188 285.464844 406.4375 307.023438 382.242188 C 308.363281 380.722656 309.699219 379.203125 311.078125 377.636719 C 315.769531 372.417969 320.546875 367.296875 325.378906 362.210938 C 326.359375 361.175781 327.335938 360.136719 328.347656 359.070312 C 387.621094 296.746094 465.171875 258.734375 548.972656 242.03125 C 550.539062 241.714844 552.101562 241.402344 553.710938 241.078125 C 557.695312 240.277344 561.675781 239.484375 565.660156 238.691406 C 564.058594 237.640625 564.058594 237.640625 562.425781 236.570312 C 547.71875 226.894531 547.71875 226.894531 542.300781 222 C 542.300781 220.898438 542.300781 219.796875 542.300781 218.660156 C 541.199219 218.660156 540.097656 218.660156 538.960938 218.660156 C 518.929688 195.789062 512 170.816406 513.535156 141.074219 C 515.195312 123.550781 523 108.691406 533.957031 95.144531 C 535.816406 92.5625 535.816406 92.5625 537.710938 89.925781 C 577.71875 48.085938 644.457031 43.152344 692.476562 73.445312 Z M 563.992188 116.84375 C 554.386719 130.054688 548.71875 143.589844 550.644531 160.242188 C 553.847656 176.863281 561.863281 189.542969 574.8125 200.308594 C 577.300781 202.277344 577.300781 202.277344 580.679688 201.96875 C 581.0625 201.101562 581.449219 200.234375 581.84375 199.34375 C 587.664062 186.890625 594.960938 179.410156 607.472656 173.515625 C 621.359375 169.015625 635.941406 170.546875 649.019531 176.738281 C 660.09375 182.792969 664.78125 191.15625 670.78125 201.96875 C 684.804688 194.101562 693.175781 181.675781 698.046875 166.507812 C 701.820312 150.757812 698.226562 137.109375 690.390625 123.140625 C 678.925781 106.265625 660.035156 97.402344 640.644531 93.054688 C 613.5 88.382812 582.8125 95.660156 563.992188 116.84375 Z M 375.4375 427.308594 C 368.980469 434.839844 362.96875 442.695312 357.082031 450.675781 C 355.777344 452.449219 354.472656 454.21875 353.128906 456.042969 C 303.429688 525.746094 282.535156 614.519531 296.328125 699.222656 C 297.050781 703.1875 297.84375 707.125 298.683594 711.066406 C 298.96875 712.433594 299.253906 713.800781 299.550781 715.210938 C 306.042969 745.242188 315.695312 774.269531 330.324219 801.332031 C 332.054688 804.542969 333.738281 807.777344 335.417969 811.015625 C 348.867188 836.410156 366.164062 859.367188 386.050781 880.058594 C 390.9375 885.167969 395.550781 890.460938 400.121094 895.855469 C 400.785156 896.570312 401.453125 897.28125 402.136719 898.015625 C 402.6875 898.015625 403.238281 898.015625 403.804688 898.015625 C 403.804688 833.566406 403.804688 769.121094 403.804688 702.722656 C 410.964844 702.171875 418.121094 701.621094 425.496094 701.050781 C 428.027344 700.75 430.554688 700.445312 433.160156 700.132812 C 442 699.105469 450.8125 699.078125 459.703125 699.070312 C 461.339844 699.050781 462.976562 699.03125 464.664062 699.007812 C 474.9375 698.988281 483.964844 700.121094 493.910156 702.722656 C 493.148438 704.238281 492.382812 705.757812 491.597656 707.320312 C 472.207031 745.84375 472.207031 745.84375 453.492188 784.691406 C 449.929688 792.246094 446.261719 799.710938 442.367188 807.097656 C 441.191406 809.347656 441.191406 809.347656 439.992188 811.644531 C 438.519531 814.449219 437.023438 817.242188 435.5 820.015625 C 430.933594 828.757812 428.855469 836.378906 430.503906 846.269531 C 434.09375 852.300781 437.441406 855.300781 443.851562 857.953125 C 452.988281 858.988281 459.925781 856.050781 467.445312 851.089844 C 469.058594 850.03125 470.671875 848.972656 472.335938 847.878906 C 473.949219 846.796875 475.5625 845.714844 477.222656 844.601562 C 478.648438 843.648438 480.074219 842.691406 481.542969 841.710938 C 486.058594 838.660156 490.558594 835.582031 495.058594 832.5 C 498.660156 830.039062 502.261719 827.582031 505.863281 825.125 C 507.335938 824.121094 507.335938 824.121094 508.839844 823.097656 C 524.164062 812.652344 539.546875 802.292969 554.917969 791.917969 C 557.203125 790.375 557.203125 790.375 559.539062 788.800781 C 568.253906 782.917969 576.96875 777.039062 585.683594 771.15625 C 592.699219 785.941406 598.625 801.054688 604.457031 816.328125 C 605.808594 819.863281 607.164062 823.398438 608.519531 826.929688 C 609.734375 830.09375 610.945312 833.257812 612.15625 836.425781 C 613.890625 841.066406 613.890625 841.066406 615.71875 844.601562 C 615.863281 849.226562 615.910156 853.8125 615.882812 858.4375 C 615.878906 860.488281 615.878906 860.488281 615.875 862.578125 C 615.863281 866.949219 615.84375 871.320312 615.824219 875.691406 C 615.816406 878.648438 615.808594 881.609375 615.800781 884.570312 C 615.78125 891.832031 615.753906 899.097656 615.71875 906.359375 C 614.613281 905.679688 613.503906 905.003906 612.367188 904.300781 C 610.15625 902.957031 610.15625 902.957031 607.902344 901.589844 C 605.726562 900.257812 605.726562 900.257812 603.507812 898.902344 C 565.101562 876.953125 513.195312 881.363281 472.0625 892.308594 C 455.011719 897.042969 438.171875 902.078125 422.160156 909.699219 C 422.984375 912.179688 422.984375 912.179688 423.828125 914.707031 C 433.980469 913.914062 444.054688 912.824219 454.144531 911.414062 C 510.222656 903.679688 568.46875 898.871094 619.523438 927.996094 C 627.292969 930.964844 632.554688 928.695312 640.011719 925.574219 C 642.171875 924.566406 644.328125 923.550781 646.484375 922.53125 C 698.277344 899.21875 754.34375 906.019531 808.914062 913.96875 C 816.246094 914.976562 823.59375 915.730469 830.96875 916.375 C 831.519531 915.273438 832.070312 914.171875 832.636719 913.039062 C 819.363281 906.328125 806.039062 900.46875 791.863281 895.929688 C 790.671875 895.539062 789.484375 895.148438 788.257812 894.746094 C 767.46875 888.324219 746.824219 885.480469 725.132812 885.679688 C 721.675781 885.703125 718.21875 885.679688 714.761719 885.644531 C 691.929688 885.601562 670.398438 888.441406 649.925781 899.164062 C 647.835938 900.203125 647.835938 900.203125 645.707031 901.265625 C 642.371094 902.933594 639.050781 904.632812 635.742188 906.359375 C 635.648438 898.648438 635.648438 890.945312 635.722656 883.234375 C 635.734375 880.628906 635.726562 878.023438 635.691406 875.417969 C 635.429688 854.316406 640.242188 838.304688 648.773438 819.132812 C 652.355469 810.875 655.535156 802.453125 658.765625 794.050781 C 660.132812 790.515625 661.503906 786.980469 662.875 783.445312 C 663.558594 781.683594 664.242188 779.917969 664.945312 778.101562 C 667.046875 772.675781 669.152344 767.25 671.257812 761.824219 C 672.621094 758.308594 673.984375 754.792969 675.34375 751.277344 C 676.269531 748.894531 676.269531 748.894531 677.214844 746.460938 C 680.28125 738.539062 683.296875 730.601562 686.246094 722.636719 C 686.800781 721.140625 687.355469 719.640625 687.929688 718.097656 C 689.3125 714.523438 689.3125 714.523438 689.136719 711.066406 C 690.09375 710.902344 691.050781 710.742188 692.039062 710.570312 C 703.984375 708.46875 715.832031 706.003906 727.675781 703.40625 C 743.707031 699.949219 759.121094 699.027344 775.5 698.984375 C 779.03125 698.964844 782.5625 698.914062 786.097656 698.863281 C 808.394531 698.78125 828.320312 701.667969 850.992188 704.390625 C 851.542969 768.285156 852.09375 832.183594 852.660156 898.015625 C 880.769531 873.914062 902.46875 844.765625 921.074219 812.886719 C 921.714844 811.800781 922.351562 810.71875 923.007812 809.601562 C 941 778.617188 952.820312 744.546875 959.453125 709.398438 C 959.722656 707.984375 959.996094 706.574219 960.273438 705.117188 C 975.195312 623.730469 957.953125 534.707031 911.472656 465.921875 C 900.5 450.609375 889.011719 435.980469 876.023438 422.300781 C 875.207031 421.429688 874.390625 420.558594 873.550781 419.660156 C 842.265625 386.472656 804.460938 361.671875 762.558594 343.851562 C 761.511719 343.398438 760.464844 342.949219 759.386719 342.484375 C 738.921875 333.820312 717.484375 328.519531 695.8125 323.820312 C 694.425781 323.515625 693.042969 323.210938 691.617188 322.898438 C 578.140625 299.253906 452.566406 341.714844 375.4375 427.308594 Z M 375.4375 427.308594 "/>
<path style=" stroke:none;fill-rule:nonzero;fill:rgb(94.509804%,94.509804%,94.509804%);fill-opacity:1;" d="M 817.621094 422.300781 C 814.90625 432.089844 810.039062 440.417969 805.105469 449.214844 C 798.378906 461.371094 791.855469 473.582031 785.707031 486.042969 C 780.519531 496.546875 775.238281 506.984375 769.753906 517.339844 C 762.609375 530.824219 755.578125 544.363281 748.582031 557.921875 C 740.800781 573 732.984375 588.058594 725.117188 603.09375 C 710.765625 630.558594 710.765625 630.558594 697.585938 658.59375 C 694.550781 665.300781 691.199219 671.550781 687.253906 677.765625 C 678.285156 691.957031 672.109375 706.535156 666.296875 722.230469 C 665.320312 724.816406 664.339844 727.402344 663.359375 729.984375 C 661.3125 735.371094 659.277344 740.761719 657.246094 746.15625 C 654.046875 754.628906 650.765625 763.070312 647.460938 771.503906 C 646.921875 772.882812 646.382812 774.261719 645.828125 775.683594 C 643.722656 781.054688 641.617188 786.429688 639.511719 791.800781 C 638.066406 795.492188 636.625 799.179688 635.1875 802.871094 C 634.761719 803.960938 634.332031 805.050781 633.890625 806.171875 C 631.957031 811.140625 630.179688 816.011719 629.066406 821.234375 C 627.964844 821.234375 626.863281 821.234375 625.730469 821.234375 C 625.066406 819.558594 624.402344 817.886719 623.71875 816.160156 C 621.21875 809.867188 618.714844 803.574219 616.207031 797.28125 C 615.128906 794.574219 614.054688 791.867188 612.980469 789.15625 C 611.421875 785.230469 609.859375 781.308594 608.292969 777.382812 C 607.828125 776.203125 607.359375 775.019531 606.875 773.800781 C 602.90625 763.871094 598.503906 754.160156 594.027344 744.449219 C 539.582031 780.089844 539.582031 780.089844 485.960938 816.945312 C 479.964844 821.152344 473.914062 825.28125 467.835938 829.371094 C 466.859375 830.039062 465.878906 830.707031 464.871094 831.394531 C 459.710938 834.839844 454.710938 837.527344 448.855469 839.59375 C 451.496094 830.898438 455.15625 822.929688 459.078125 814.765625 C 459.667969 813.519531 460.257812 812.277344 460.863281 810.996094 C 464.867188 802.597656 468.996094 794.265625 473.164062 785.945312 C 474.359375 783.554688 475.558594 781.164062 476.753906 778.769531 C 477.691406 776.898438 477.691406 776.898438 478.644531 774.988281 C 481.847656 768.582031 485.046875 762.167969 488.246094 755.757812 C 494.894531 742.425781 501.550781 729.09375 508.207031 715.765625 C 512.195312 707.769531 516.1875 699.773438 520.175781 691.777344 C 524.082031 683.941406 527.992188 676.109375 531.90625 668.273438 C 533.375 665.335938 534.839844 662.394531 536.308594 659.449219 C 544.539062 642.929688 552.890625 626.492188 561.59375 610.214844 C 574.699219 585.582031 585.011719 559.617188 595.601562 533.835938 C 602.027344 518.207031 608.59375 502.640625 615.195312 487.085938 C 615.972656 485.253906 615.972656 485.253906 616.765625 483.386719 C 625.417969 462.988281 625.417969 462.988281 627.398438 459.023438 C 628.5 459.023438 629.601562 459.023438 630.734375 459.023438 C 640.097656 482.707031 649.457031 506.394531 659.101562 530.796875 C 663.605469 530.796875 665.121094 529.089844 668.703125 526.390625 C 669.976562 525.4375 671.25 524.488281 672.5625 523.507812 C 673.9375 522.46875 675.3125 521.433594 676.726562 520.363281 C 679.628906 518.199219 682.53125 516.039062 685.433594 513.878906 C 686.898438 512.789062 688.363281 511.699219 689.875 510.574219 C 695.996094 506.0625 702.203125 501.675781 708.429688 497.308594 C 721.957031 487.816406 735.355469 478.15625 748.734375 468.460938 C 755.144531 463.8125 761.5625 459.175781 767.980469 454.535156 C 769.21875 453.640625 770.457031 452.746094 771.734375 451.820312 C 780.660156 445.375 789.605469 438.960938 798.578125 432.578125 C 802.324219 429.910156 806.023438 427.242188 809.605469 424.347656 C 812.613281 422.300781 812.613281 422.300781 817.621094 422.300781 Z M 596.152344 608.640625 C 586.753906 618.945312 582.371094 630.386719 582.347656 644.300781 C 583.632812 658.050781 589.5 668.9375 599.660156 678.207031 C 610.046875 686.464844 621.574219 690.050781 634.765625 689.070312 C 647.640625 687.113281 657.152344 681.304688 666.296875 672.15625 C 674.839844 658.546875 677.761719 647.175781 675.789062 630.949219 C 672.574219 618.984375 665.660156 608.554688 655.277344 601.722656 C 634.761719 590.585938 613.375 592.308594 596.152344 608.640625 Z M 596.152344 608.640625 "/>
<path style=" stroke:none;fill-rule:nonzero;fill:rgb(95.294118%,95.294118%,95.294118%);fill-opacity:1;" d="M 849.414062 1043.800781 C 854.519531 1048.15625 858.550781 1052.96875 862.671875 1058.253906 C 863.601562 1057 864.527344 1055.746094 865.484375 1054.453125 C 877.28125 1040.582031 898 1031.355469 916.070312 1029.878906 C 939.136719 1028.496094 957.734375 1033.214844 976.082031 1047.445312 C 986.25 1056.570312 993.351562 1069.941406 996.164062 1083.292969 C 996.3125 1088.003906 996.375 1092.671875 996.351562 1097.382812 C 996.351562 1098.800781 996.351562 1100.214844 996.351562 1101.675781 C 996.351562 1106.355469 996.339844 1111.035156 996.324219 1115.710938 C 996.324219 1118.957031 996.320312 1122.203125 996.320312 1125.449219 C 996.3125 1133.988281 996.296875 1142.53125 996.277344 1151.070312 C 996.261719 1159.785156 996.253906 1168.5 996.246094 1177.21875 C 996.226562 1194.316406 996.195312 1211.414062 996.164062 1228.511719 C 977.992188 1228.511719 959.820312 1228.511719 941.097656 1228.511719 C 941.035156 1220.03125 940.972656 1211.546875 940.910156 1202.808594 C 940.859375 1197.40625 940.808594 1192.007812 940.75 1186.605469 C 940.660156 1178.050781 940.574219 1169.492188 940.519531 1160.9375 C 940.476562 1154.03125 940.410156 1147.125 940.324219 1140.222656 C 940.296875 1137.597656 940.277344 1134.976562 940.269531 1132.351562 C 940.488281 1108.109375 940.488281 1108.109375 930.566406 1086.632812 C 921.441406 1079.839844 912.128906 1078.71875 901.050781 1079.953125 C 890.496094 1083.300781 884.308594 1088.503906 878.109375 1097.585938 C 874.257812 1105.101562 874.113281 1111.707031 874.011719 1120.121094 C 873.996094 1121.292969 873.976562 1122.46875 873.960938 1123.675781 C 873.910156 1127.542969 873.867188 1131.40625 873.824219 1135.273438 C 873.792969 1137.957031 873.757812 1140.640625 873.722656 1143.328125 C 873.628906 1150.386719 873.546875 1157.441406 873.464844 1164.5 C 873.367188 1172.972656 873.257812 1181.445312 873.148438 1189.917969 C 872.984375 1202.78125 872.835938 1215.648438 872.683594 1228.511719 C 854.515625 1228.511719 836.34375 1228.511719 817.621094 1228.511719 C 817.558594 1219.992188 817.496094 1211.46875 817.433594 1202.691406 C 817.382812 1197.273438 817.328125 1191.859375 817.273438 1186.441406 C 817.183594 1177.855469 817.097656 1169.269531 817.042969 1160.683594 C 817 1153.757812 816.933594 1146.832031 816.847656 1139.90625 C 816.820312 1137.269531 816.800781 1134.636719 816.789062 1132 C 816.789062 1109.488281 816.789062 1109.488281 807.191406 1089.449219 C 800.160156 1082.574219 794.089844 1080.257812 784.351562 1079.328125 C 773.910156 1079.835938 765.722656 1082.667969 758.59375 1090.492188 C 751.523438 1098.964844 750.457031 1108.234375 750.34375 1118.984375 C 750.320312 1120.769531 750.320312 1120.769531 750.292969 1122.589844 C 750.242188 1126.492188 750.214844 1130.394531 750.1875 1134.292969 C 750.15625 1137.011719 750.121094 1139.730469 750.085938 1142.445312 C 750.003906 1149.574219 749.9375 1156.703125 749.875 1163.835938 C 749.796875 1172.402344 749.691406 1180.96875 749.59375 1189.535156 C 749.445312 1202.527344 749.332031 1215.519531 749.207031 1228.511719 C 731.035156 1228.511719 712.867188 1228.511719 694.144531 1228.511719 C 694.144531 1164.617188 694.144531 1100.71875 694.144531 1034.886719 C 712.316406 1034.886719 730.484375 1034.886719 749.207031 1034.886719 C 750.035156 1043.148438 750.035156 1043.148438 750.875 1051.578125 C 752.667969 1049.824219 754.457031 1048.066406 756.300781 1046.257812 C 782.011719 1023.65625 822.230469 1024.183594 849.414062 1043.800781 Z M 849.414062 1043.800781 "/>
<path style=" stroke:none;fill-rule:nonzero;fill:rgb(94.117647%,94.117647%,94.509804%);fill-opacity:1;" d="M 1192.5 1048.246094 C 1213.933594 1066.351562 1226.5 1093.070312 1229.085938 1120.847656 C 1231.558594 1152.847656 1224.054688 1182.292969 1203.28125 1207.230469 C 1188.054688 1223.441406 1168.347656 1232.964844 1146.089844 1234.097656 C 1143.011719 1234.171875 1139.929688 1234.222656 1136.847656 1234.25 C 1135.402344 1234.265625 1133.957031 1234.28125 1132.464844 1234.300781 C 1119.121094 1234.121094 1105.996094 1231.550781 1094.925781 1223.710938 C 1093.777344 1222.925781 1092.632812 1222.136719 1091.449219 1221.324219 C 1087.21875 1217.917969 1083.433594 1213.992188 1079.59375 1210.148438 C 1079.042969 1238.792969 1078.492188 1267.4375 1077.925781 1296.949219 C 1059.203125 1296.949219 1040.480469 1296.949219 1021.191406 1296.949219 C 1021.191406 1210.46875 1021.191406 1123.988281 1021.191406 1034.886719 C 1039.914062 1034.886719 1058.636719 1034.886719 1077.925781 1034.886719 C 1078.75 1044.800781 1078.75 1044.800781 1079.59375 1054.917969 C 1080.386719 1053.746094 1081.175781 1052.578125 1081.992188 1051.371094 C 1110.265625 1019.640625 1160.984375 1024.535156 1192.5 1048.246094 Z M 1088.144531 1092.785156 C 1076.183594 1107.6875 1073.863281 1124.027344 1075.429688 1142.535156 C 1077.394531 1156.429688 1084.027344 1167.5625 1094.609375 1176.765625 C 1107.375 1184.804688 1120.164062 1188.933594 1135.308594 1186.011719 C 1150.09375 1182.15625 1160.179688 1175.113281 1168.015625 1161.953125 C 1175.660156 1145.832031 1176.46875 1128.335938 1171.484375 1111.316406 C 1166.511719 1098.351562 1158.515625 1088.453125 1146.339844 1081.625 C 1125.613281 1073.226562 1103.632812 1076.675781 1088.144531 1092.785156 Z M 1088.144531 1092.785156 "/>
<path style=" stroke:none;fill-rule:nonzero;fill:rgb(94.901961%,94.901961%,94.901961%);fill-opacity:1;" d="M 457.03125 1001.960938 C 458.1875 1002.910156 459.34375 1003.863281 460.539062 1004.84375 C 458.460938 1012.460938 454.269531 1016.433594 448.746094 1021.714844 C 440.347656 1029.929688 432.964844 1039.1875 425.496094 1048.242188 C 419.296875 1046.027344 414.648438 1043.261719 409.4375 1039.269531 C 397.710938 1030.878906 384.871094 1025.941406 370.433594 1024.871094 C 369.328125 1024.785156 368.226562 1024.699219 367.089844 1024.613281 C 345.257812 1023.671875 326.546875 1032.402344 310.363281 1046.570312 C 297.199219 1063.878906 291.710938 1080.425781 291.589844 1101.863281 C 291.554688 1103.363281 291.523438 1104.867188 291.484375 1106.414062 C 291.367188 1126.835938 298.503906 1144.246094 312.03125 1159.554688 C 328.402344 1175.015625 348.765625 1179.148438 370.417969 1178.789062 C 391.839844 1177.976562 410.4375 1166.320312 425.496094 1151.730469 C 426.628906 1152.863281 427.757812 1153.996094 428.925781 1155.164062 C 432.46875 1158.710938 436.027344 1162.242188 439.589844 1165.765625 C 441.636719 1167.800781 443.683594 1169.832031 445.730469 1171.863281 C 446.761719 1172.882812 447.796875 1173.90625 448.863281 1174.957031 C 453.707031 1179.777344 458.335938 1184.453125 462.207031 1190.121094 C 459.660156 1197.144531 454.550781 1200.597656 448.648438 1204.726562 C 447.617188 1205.449219 446.582031 1206.175781 445.519531 1206.921875 C 412.402344 1229.542969 375.464844 1239.835938 335.386719 1232.546875 C 301.585938 1225.464844 271.824219 1206.96875 251.953125 1178.703125 C 239.609375 1159.15625 229.558594 1136.792969 228.601562 1113.339844 C 228.515625 1111.421875 228.429688 1109.507812 228.339844 1107.535156 C 227.328125 1073.964844 235.730469 1043.042969 256.964844 1016.527344 C 258.265625 1014.820312 258.265625 1014.820312 259.59375 1013.078125 C 308.664062 952.339844 400.050781 957.25 457.03125 1001.960938 Z M 457.03125 1001.960938 "/>
<path style=" stroke:none;fill-rule:nonzero;fill:rgb(93.725491%,94.117647%,94.117647%);fill-opacity:1;" d="M 1396.628906 1046.570312 C 1398.902344 1048.070312 1398.902344 1048.070312 1401.21875 1049.597656 C 1413.792969 1061.824219 1422.816406 1080.019531 1423.59375 1097.636719 C 1423.625 1100.078125 1423.652344 1102.519531 1423.671875 1104.960938 C 1423.6875 1106.296875 1423.703125 1107.632812 1423.722656 1109.011719 C 1423.773438 1113.417969 1423.816406 1117.824219 1423.855469 1122.230469 C 1423.890625 1125.292969 1423.925781 1128.351562 1423.960938 1131.410156 C 1424.054688 1139.453125 1424.136719 1147.5 1424.214844 1155.546875 C 1424.300781 1163.757812 1424.394531 1171.972656 1424.484375 1180.183594 C 1424.664062 1196.292969 1424.832031 1212.402344 1424.996094 1228.511719 C 1406.824219 1228.511719 1388.652344 1228.511719 1369.933594 1228.511719 C 1369.382812 1223.003906 1368.832031 1217.496094 1368.265625 1211.820312 C 1367.375 1212.707031 1366.484375 1213.59375 1365.566406 1214.507812 C 1350.804688 1228.503906 1335.183594 1234.121094 1314.867188 1235.1875 C 1292.921875 1234.582031 1274.617188 1229.777344 1258.46875 1214.308594 C 1247.542969 1201.925781 1242.148438 1185.296875 1242.707031 1168.800781 C 1244.488281 1152.675781 1248.964844 1138.023438 1261.480469 1127.117188 C 1287.378906 1108.527344 1321.695312 1108.261719 1352.144531 1112.789062 C 1358.132812 1113.851562 1364.042969 1115.160156 1369.933594 1116.675781 C 1369.667969 1104.953125 1368.191406 1095.410156 1359.921875 1086.632812 C 1344.96875 1076.390625 1326.804688 1076.472656 1309.417969 1079.113281 C 1299.042969 1081.519531 1289.671875 1085.296875 1280.128906 1089.988281 C 1276.488281 1091.640625 1276.488281 1091.640625 1273.152344 1091.640625 C 1268.195312 1078.417969 1263.242188 1065.199219 1258.136719 1051.578125 C 1298.433594 1027.390625 1355.847656 1017.082031 1396.628906 1046.570312 Z M 1303.1875 1153.398438 C 1298.3125 1160.714844 1297.25 1166.382812 1298.183594 1175.097656 C 1301.089844 1182.902344 1304.507812 1187.320312 1311.53125 1191.789062 C 1325.890625 1197.210938 1339.332031 1196.195312 1353.246094 1190.121094 C 1361.792969 1184.550781 1368.125 1177.835938 1371.078125 1167.898438 C 1371.777344 1161.910156 1371.703125 1156.089844 1371.601562 1150.058594 C 1351.40625 1142.480469 1320.480469 1137.832031 1303.1875 1153.398438 Z M 1303.1875 1153.398438 "/>
<path style=" stroke:none;fill-rule:nonzero;fill:rgb(94.509804%,94.509804%,94.509804%);fill-opacity:1;" d="M 630.734375 1046.570312 C 636.777344 1051.171875 642.136719 1056.152344 647.421875 1061.59375 C 648.480469 1062.617188 649.539062 1063.640625 650.628906 1064.699219 C 669.792969 1084.546875 676.628906 1110.996094 676.371094 1137.808594 C 675.652344 1163.707031 665.285156 1187.269531 647.199219 1205.914062 C 619.523438 1230.429688 589.917969 1235.335938 553.980469 1233.519531 C 547.328125 1232.683594 541.773438 1231.140625 535.625 1228.511719 C 532.808594 1227.320312 532.808594 1227.320312 529.933594 1226.105469 C 516.539062 1220.085938 505.832031 1212.375 495.578125 1201.804688 C 493.960938 1200.210938 493.960938 1200.210938 492.3125 1198.582031 C 473.761719 1179.09375 467.96875 1154.539062 468.0625 1128.453125 C 468.902344 1099.558594 481.390625 1074.878906 502.253906 1054.917969 C 539.5625 1024.0625 589.777344 1021.472656 630.734375 1046.570312 Z M 533.957031 1094.976562 C 522.550781 1111.558594 519.542969 1129.605469 523.050781 1149.433594 C 527.519531 1164.660156 536.480469 1173.808594 550.03125 1181.558594 C 562.058594 1187.296875 577.03125 1187.328125 589.589844 1183.347656 C 604.089844 1176.59375 613.515625 1167.96875 619.785156 1153.191406 C 624.789062 1137.546875 624.378906 1121.070312 618.046875 1105.890625 C 611.253906 1093.519531 601.347656 1083.382812 587.710938 1078.996094 C 567.066406 1075.027344 548.109375 1079.019531 533.957031 1094.976562 Z M 533.957031 1094.976562 "/>
<path style=" stroke:none;fill-rule:nonzero;fill:rgb(94.509804%,94.509804%,94.509804%);fill-opacity:1;" d="M 1587.476562 1043.234375 C 1588.5625 1043.789062 1589.644531 1044.339844 1590.761719 1044.910156 C 1598.128906 1048.972656 1598.128906 1048.972656 1599.875 1053.042969 C 1600.292969 1057.578125 1599.207031 1059.363281 1596.832031 1063.210938 C 1596.089844 1064.441406 1595.34375 1065.667969 1594.578125 1066.933594 C 1593.785156 1068.203125 1592.988281 1069.46875 1592.171875 1070.773438 C 1590.628906 1073.292969 1589.089844 1075.816406 1587.550781 1078.335938 C 1586.859375 1079.449219 1586.164062 1080.5625 1585.453125 1081.707031 C 1583.523438 1084.949219 1581.820312 1088.246094 1580.179688 1091.640625 C 1575.390625 1089.949219 1571.675781 1088.1875 1567.558594 1085.171875 C 1553.183594 1075.4375 1535.441406 1072.589844 1518.4375 1074.949219 C 1513.695312 1076.929688 1513.695312 1076.929688 1510.097656 1079.953125 C 1507.867188 1085.554688 1507.867188 1085.554688 1508.425781 1091.640625 C 1514.339844 1101.417969 1524.652344 1102.800781 1535.117188 1105.710938 C 1585.675781 1120.089844 1585.675781 1120.089844 1599.375 1142.476562 C 1603.269531 1149.886719 1606.347656 1156.636719 1606.875 1165.082031 C 1606.960938 1166.3125 1607.042969 1167.542969 1607.128906 1168.8125 C 1607.835938 1187.035156 1602.246094 1201.007812 1589.980469 1214.425781 C 1572.074219 1231.65625 1547.882812 1234.351562 1524.15625 1234.222656 C 1493.984375 1233.445312 1466.921875 1223.21875 1441.683594 1206.8125 C 1442.71875 1201.203125 1444.773438 1197.65625 1448.140625 1193.085938 C 1449.101562 1191.777344 1450.058594 1190.464844 1451.046875 1189.113281 C 1452.554688 1187.082031 1452.554688 1187.082031 1454.09375 1185.007812 C 1456.074219 1182.3125 1458.050781 1179.613281 1460.03125 1176.917969 C 1460.910156 1175.726562 1461.792969 1174.535156 1462.699219 1173.3125 C 1464.660156 1170.617188 1466.53125 1167.855469 1468.378906 1165.082031 C 1473.386719 1167.476562 1477.988281 1170.242188 1482.667969 1173.21875 C 1497.902344 1182.4375 1513.199219 1186.984375 1530.953125 1187.199219 C 1533.105469 1187.242188 1535.253906 1187.285156 1537.472656 1187.328125 C 1544.246094 1186.710938 1548.644531 1184.945312 1553.480469 1180.105469 C 1554.402344 1171.863281 1554.402344 1171.863281 1550.585938 1164.898438 C 1541.265625 1157.117188 1528.40625 1155.007812 1516.847656 1152.136719 C 1496.535156 1147.070312 1473.675781 1140.9375 1462.175781 1121.957031 C 1452.933594 1104.296875 1450.972656 1088.539062 1456.636719 1069.398438 C 1462.386719 1054.578125 1475.328125 1042.839844 1489.65625 1036.355469 C 1521.871094 1023.765625 1557.144531 1027.652344 1587.476562 1043.234375 Z M 1587.476562 1043.234375 "/>
<path style=" stroke:none;fill-rule:nonzero;fill:rgb(94.509804%,94.509804%,94.509804%);fill-opacity:1;" d="M 1770.398438 1048.242188 C 1772.101562 1049.875 1773.78125 1051.535156 1775.40625 1053.25 C 1774.507812 1054.816406 1774.507812 1054.816406 1773.59375 1056.414062 C 1770.894531 1061.128906 1768.195312 1065.847656 1765.5 1070.566406 C 1764.085938 1073.03125 1764.085938 1073.03125 1762.648438 1075.546875 C 1761.75 1077.117188 1760.851562 1078.6875 1759.925781 1080.308594 C 1758.679688 1082.484375 1758.679688 1082.484375 1757.410156 1084.703125 C 1756.125 1086.984375 1754.886719 1089.296875 1753.714844 1091.640625 C 1749.929688 1089.761719 1746.167969 1087.847656 1742.417969 1085.902344 C 1725.46875 1077.195312 1711.285156 1072.824219 1691.976562 1074.949219 C 1687.203125 1076.960938 1687.203125 1076.960938 1683.632812 1079.953125 C 1681.683594 1085.554688 1681.570312 1088.695312 1683.320312 1094.351562 C 1692.332031 1104.140625 1708.582031 1106.507812 1721.070312 1109.792969 C 1742.757812 1115.804688 1761.820312 1123.945312 1774.421875 1143.742188 C 1781.800781 1157.953125 1782.777344 1174.433594 1779.328125 1189.996094 C 1773.273438 1206.640625 1760.6875 1218.675781 1744.953125 1226.214844 C 1716.453125 1239.460938 1680.96875 1235.964844 1652.058594 1225.703125 C 1638.980469 1220.789062 1626.917969 1214.417969 1615.21875 1206.8125 C 1616.238281 1200.546875 1619.039062 1196.789062 1622.890625 1191.816406 C 1624.089844 1190.253906 1625.289062 1188.695312 1626.523438 1187.089844 C 1627.785156 1185.472656 1629.042969 1183.855469 1630.339844 1182.191406 C 1631.605469 1180.550781 1632.871094 1178.910156 1634.175781 1177.21875 C 1637.304688 1173.164062 1640.441406 1169.121094 1643.585938 1165.082031 C 1648.464844 1167.472656 1652.910156 1170.136719 1657.457031 1173.117188 C 1676.542969 1184.492188 1696.546875 1189.78125 1718.671875 1186.78125 C 1723.503906 1184.832031 1723.503906 1184.832031 1727.015625 1181.773438 C 1728.550781 1176.136719 1729.433594 1172.167969 1727.425781 1166.59375 C 1719.835938 1154.976562 1696.78125 1152.882812 1684.324219 1149.761719 C 1663.488281 1144.242188 1646.378906 1135.542969 1634.128906 1117.53125 C 1626.644531 1103.417969 1626.089844 1086.234375 1630.027344 1070.949219 C 1636.582031 1053.808594 1647.09375 1044.070312 1663.609375 1036.554688 C 1699.160156 1022.65625 1738.214844 1028.835938 1770.398438 1048.242188 Z M 1770.398438 1048.242188 "/>
<path style=" stroke:none;fill-rule:nonzero;fill:rgb(90.980393%,91.37255%,91.37255%);fill-opacity:1;" d="M 592.359375 347.1875 C 612.382812 347.1875 612.382812 347.1875 619.152344 353.714844 C 621.101562 356.535156 622.980469 359.40625 624.792969 362.316406 C 625.746094 363.730469 626.699219 365.144531 627.683594 366.601562 C 629.476562 369.269531 631.242188 371.953125 632.96875 374.664062 C 636.511719 380.082031 640.324219 385.320312 644.085938 390.585938 C 644.636719 376.265625 645.1875 361.945312 645.753906 347.1875 C 652.914062 347.1875 660.070312 347.1875 667.445312 347.1875 C 667.445312 376.382812 667.445312 405.574219 667.445312 435.652344 C 649.089844 435.652344 649.089844 435.652344 645.023438 432.953125 C 644.203125 431.710938 643.382812 430.46875 642.539062 429.1875 C 641.589844 427.816406 640.640625 426.445312 639.664062 425.03125 C 638.746094 423.582031 637.832031 422.128906 636.890625 420.632812 C 634.984375 417.816406 633.078125 415 631.171875 412.179688 C 630.363281 410.921875 629.554688 409.664062 628.71875 408.367188 C 624.609375 402.28125 620.125 396.460938 615.71875 390.585938 C 615.71875 405.457031 615.71875 420.332031 615.71875 435.652344 C 608.007812 435.652344 600.300781 435.652344 592.359375 435.652344 C 592.359375 406.460938 592.359375 377.265625 592.359375 347.1875 Z M 592.359375 347.1875 "/>
<path style=" stroke:none;fill-rule:nonzero;fill:rgb(93.725491%,93.725491%,93.725491%);fill-opacity:1;" d="M 644.710938 615.300781 C 658.347656 627.640625 658.347656 627.640625 659.101562 635.953125 C 659.359375 638.640625 659.359375 638.640625 659.625 641.378906 C 658.78125 651.488281 655.03125 659.21875 647.316406 665.894531 C 638.84375 671.847656 630.792969 672.125 620.722656 671.007812 C 612.585938 667.015625 607.695312 661.46875 602.371094 654.316406 C 599.578125 645.9375 598.976562 637.15625 602.15625 628.789062 C 611.238281 612.90625 627.773438 607.140625 644.710938 615.300781 Z M 644.710938 615.300781 "/>
<path style=" stroke:none;fill-rule:nonzero;fill:rgb(80.784315%,81.568629%,82.352942%);fill-opacity:1;" d="M 617.386719 171.925781 C 615.421875 172.777344 615.421875 172.777344 613.417969 173.644531 C 600.742188 179.496094 590.429688 185.796875 584.015625 198.632812 C 582.914062 198.082031 581.8125 197.53125 580.679688 196.960938 C 587.246094 184.941406 601.84375 166.742188 617.386719 171.925781 Z M 617.386719 171.925781 "/>
<path style=" stroke:none;fill-rule:nonzero;fill:rgb(87.450981%,87.843138%,88.235295%);fill-opacity:1;" d="M 283.664062 991.488281 C 284.765625 992.039062 285.867188 992.589844 287 993.15625 C 285.671875 994.367188 284.34375 995.578125 282.972656 996.820312 C 274.125 1004.890625 265.320312 1012.945312 256.964844 1021.535156 C 255.867188 1020.984375 254.765625 1020.433594 253.628906 1019.863281 C 262.816406 1009.070312 272.117188 999.734375 283.664062 991.488281 Z M 283.664062 991.488281 "/>
<path style=" stroke:none;fill-rule:nonzero;fill:rgb(53.725493%,54.11765%,55.686277%);fill-opacity:1;" d="M 452.195312 829.578125 C 453.296875 830.128906 454.398438 830.679688 455.53125 831.25 C 456.082031 831.25 456.632812 831.25 457.199219 831.25 C 458.851562 831.800781 460.503906 832.351562 462.207031 832.917969 C 452.613281 839.59375 452.613281 839.59375 448.855469 839.59375 C 449.957031 836.289062 451.058594 832.984375 452.195312 829.578125 Z M 452.195312 829.578125 "/>
</g>
</svg>
